<svg xmlns="http://www.w3.org/2000/svg" enable-background="new 0 0 300 300" viewBox="0 0 300 300"><path fill="#bbcdea" d="M227.758 218.109c0 .215-.223.41-.675.499h-1.15c-.451-.09-.675-.284-.675-.505s.224-.41.676-.504h1.149c.452.094.675.284.675.51zM238.119 218.109c0 .215-.464.41-1.4.499h-2.381c-.936-.09-1.4-.284-1.4-.505s.464-.41 1.4-.504h2.38c.937.094 1.4.284 1.4.51zM248.48 218.109c0 .215-.464.41-1.401.499h-2.38c-.937-.09-1.4-.284-1.4-.505s.463-.41 1.4-.504h2.38c.937.094 1.4.284 1.4.51zM258.84 218.109c0 .215-.464.41-1.4.499h-2.381c-.936-.09-1.4-.284-1.4-.505s.464-.41 1.4-.504h2.38c.937.094 1.4.284 1.4.51zM266.525 215.603c.216 0 .41.447.5 1.352v1.653h-1.655c-.903-.09-1.35-.284-1.35-.505s.447-.41 1.35-.504h.645v-.644c.095-.905.284-1.352.51-1.352zM266.525 205.445c.216 0 .41.454.5 1.373v2.334c-.09.918-.284 1.372-.505 1.372-.22 0-.41-.454-.505-1.372v-2.334c.095-.919.284-1.373.51-1.373zM266.525 195.287c.216 0 .41.454.5 1.372v2.335c-.09.917-.284 1.372-.505 1.372-.22 0-.41-.455-.505-1.372v-2.335c.095-.918.284-1.372.51-1.372zM266.525 185.128c.216 0 .41.455.5 1.373v2.335c-.09.917-.284 1.372-.505 1.372-.22 0-.41-.455-.505-1.372V186.5c.095-.918.284-1.373.51-1.373zM266.525 174.97c.216 0 .41.454.5 1.373v2.334c-.09.918-.284 1.372-.505 1.372-.22 0-.41-.454-.505-1.372v-2.334c.095-.919.284-1.373.51-1.373zM266.525 164.812c.216 0 .41.454.5 1.373v2.334c-.09.918-.284 1.372-.505 1.372-.22 0-.41-.454-.505-1.372v-2.334c.095-.919.284-1.373.51-1.373zM266.525 154.653c.216 0 .41.455.5 1.373v2.335c-.09.917-.284 1.372-.505 1.372-.22 0-.41-.455-.505-1.372v-2.335c.095-.918.284-1.373.51-1.373zM266.525 144.495c.216 0 .41.455.5 1.373v2.334c-.09.918-.284 1.372-.505 1.372-.22 0-.41-.454-.505-1.372v-2.334c.095-.918.284-1.373.51-1.373zM266.525 134.337c.216 0 .41.454.5 1.373v2.334c-.09.918-.284 1.372-.505 1.372-.22 0-.41-.454-.505-1.372v-2.334c.095-.919.284-1.373.51-1.373zM266.525 126.758c.216 0 .41.223.5.676v1.149c-.09.451-.284.675-.505.675-.22 0-.41-.224-.505-.675v-1.15c.095-.452.284-.675.51-.675z" class="colorbbcaea svgShape"/><path fill="#3a463d" d="M231.87 59.168v181.664c0 5.329-4.321 9.65-9.65 9.65h-99.042c-5.33 0-9.65-4.321-9.65-9.65V59.168c0-5.329 4.32-9.65 9.65-9.65h99.041c5.33 0 9.65 4.321 9.65 9.65z" class="color3a4146 svgShape"/><path fill="#fff" d="M229.813 67.828v171.258c0 4.19-3.41 7.589-7.589 7.589h-99.042c-4.19 0-7.598-3.4-7.598-7.589V67.828c0-4.19 3.409-7.589 7.598-7.589h99.042c4.18 0 7.589 3.4 7.589 7.589z" class="colorffffff svgShape"/><circle cx="160.259" cy="55.091" r="1.945" fill="#fff" class="colorffffff svgShape"/><path fill="#fff" d="M187.08 55.091c0 .744-.612 1.357-1.356 1.357H166.76a1.355 1.355 0 0 1-1.357-1.357c0-.757.6-1.357 1.357-1.357h18.965c.744 0 1.357.6 1.357 1.357z" class="colorffffff svgShape"/><path fill="#ffd764" d="M123.717 71.49h-24.49l16.357-11.251h19.038z" class="colorffd964 svgShape"/><path fill="#fe7e73" d="M148.208 71.49h-24.49l10.904-11.251h19.038z" class="colorfe7b73 svgShape"/><path fill="#ffd764" d="M172.698 71.49h-24.49l5.452-11.251h19.038z" class="colorffd964 svgShape"/><path fill="#fe7e73" d="M197.188 71.49h-24.49V60.239h19.038z" class="colorfe7b73 svgShape"/><path fill="#ffd764" d="M221.679 71.49h-24.49l-5.453-11.251h19.038z" class="colorffd964 svgShape"/><path fill="#fe7e73" d="M246.17 71.49h-24.491l-10.905-11.251h19.039z" class="colorfe7b73 svgShape"/><path fill="#ea4335" d="M246.17 71.491v1.649c0 6.759-5.478 12.238-12.247 12.238-6.759 0-12.248-5.48-12.248-12.238V71.49h24.496z" class="colorfe4c40 svgShape"/><path fill="#fbbc05" d="M221.684 71.491v1.649c0 6.759-5.479 12.238-12.248 12.238-6.759 0-12.248-5.48-12.248-12.238V71.49h24.496z" class="colorffcf3d svgShape"/><path fill="#ea4335" d="M197.197 71.491v1.649c0 6.759-5.479 12.238-12.248 12.238-6.758 0-12.247-5.48-12.247-12.238V71.49h24.495z" class="colorfe4c40 svgShape"/><path fill="#fbbc05" d="M172.71 71.491v1.649c0 6.759-5.479 12.238-12.247 12.238-6.76 0-12.248-5.48-12.248-12.238V71.49h24.495z" class="colorffcf3d svgShape"/><path fill="#ea4335" d="M148.224 71.491v1.649c0 6.759-5.48 12.238-12.248 12.238-6.759 0-12.248-5.48-12.248-12.238V71.49h24.496z" class="colorfe4c40 svgShape"/><path fill="#fbbc05" d="M123.737 71.491v1.649c0 6.759-5.48 12.238-12.248 12.238-6.759 0-12.248-5.48-12.248-12.238V71.49h24.496z" class="colorffcf3d svgShape"/><path fill="#f3f7fd" d="M211.71 99.798v20.441c0 2.399-1.951 4.35-4.35 4.35h-69.321a4.348 4.348 0 0 1-4.35-4.35V99.8a4.348 4.348 0 0 1 4.35-4.35h69.32c2.4 0 4.35 1.95 4.35 4.35z" class="colorf3f6fd svgShape"/><path d="M149.082 114.366a.666.666 0 0 1-.295-.242.626.626 0 0 1 .052-.795.562.562 0 0 1 .433-.184c.099 0 .192.02.28.058.903.403 1.87.604 2.9.604 1.718 0 2.576-.564 2.576-1.693 0-.294-.11-.54-.331-.736s-.493-.35-.817-.463a19.371 19.371 0 0 0-1.383-.405 17.91 17.91 0 0 1-1.929-.596 3.35 3.35 0 0 1-1.266-.861c-.353-.383-.53-.894-.53-1.532 0-.56.148-1.067.442-1.523.294-.456.728-.82 1.302-1.089.575-.27 1.264-.405 2.069-.405 1.079 0 2.055.162 2.93.485.274.099.411.295.411.59a.65.65 0 0 1-.162.427.534.534 0 0 1-.426.191.68.68 0 0 1-.236-.06 7.205 7.205 0 0 0-2.37-.397c-.775 0-1.406.148-1.891.442-.487.295-.729.707-.729 1.237 0 .352.115.64.346.86s.52.393.868.516.822.253 1.42.39c.776.186 1.401.373 1.878.56.475.186.883.476 1.221.868.338.393.508.922.508 1.59a2.47 2.47 0 0 1-.471 1.479c-.314.437-.755.778-1.325 1.023s-1.226.368-1.972.368a8.718 8.718 0 0 1-3.503-.707zM160.445 114.808a.637.637 0 0 1-.191-.471v-8.435h-3.003a.598.598 0 0 1-.442-.176c-.118-.118-.176-.265-.176-.442s.058-.326.176-.449a.589.589 0 0 1 .442-.184h7.33c.177 0 .327.062.45.184.122.123.184.272.184.45s-.062.323-.184.44a.624.624 0 0 1-.45.177h-2.988v8.435a.626.626 0 0 1-.199.47.662.662 0 0 1-.477.192.64.64 0 0 1-.472-.191zM165.862 109.788c.06-3.172 2.105-5.284 5.167-5.284 3.173 0 5.11 2.26 5.167 5.284-.058 3.035-2.006 5.285-5.167 5.285-2.994 0-5.106-2.043-5.167-5.285zm8.994 0c0-2.327-1.46-4.033-3.827-4.033-2.415 0-3.827 1.749-3.827 4.033 0 2.283 1.409 4.033 3.827 4.033 2.362 0 3.827-1.699 3.827-4.033zM178.625 114.808a.637.637 0 0 1-.192-.471v-9.009c0-.186.064-.346.192-.478a.628.628 0 0 1 .47-.199h3.43c1.335 0 2.336.275 3.003.825s1.001 1.27 1.001 2.164c0 .589-.164 1.126-.493 1.611-.33.486-.807.837-1.435 1.053.706.186 1.19.626 1.45 1.317s.39 1.371.39 2.04v.676a.64.64 0 0 1-.191.47.64.64 0 0 1-.472.192.665.665 0 0 1-.492-.184.647.647 0 0 1-.185-.478v-.441a6.53 6.53 0 0 0-.133-1.362 2.187 2.187 0 0 0-.632-1.119c-.333-.33-.84-.493-1.516-.493h-3.047v3.415a.626.626 0 0 1-.2.47c-.132.129-.291.192-.478.192s-.343-.063-.47-.191zm3.812-5.152c.844 0 1.514-.167 2.009-.5.496-.334.744-.805.744-1.414 0-.589-.214-1.04-.64-1.354-.427-.314-1.156-.471-2.187-.471h-2.59v3.74h2.664zM189.105 114.734a.637.637 0 0 1-.191-.47v-8.936c0-.186.063-.346.191-.478a.628.628 0 0 1 .47-.199h5.904c.176 0 .326.062.448.184.123.123.185.272.185.45s-.062.323-.185.44a.621.621 0 0 1-.448.177h-5.225v3.253h4.695a.61.61 0 0 1 .45.185.612.612 0 0 1 .183.448.59.59 0 0 1-.184.442.627.627 0 0 1-.45.176h-4.694v3.269h5.225c.176 0 .326.061.448.183.123.123.185.273.185.45s-.062.324-.185.441a.621.621 0 0 1-.448.177h-5.903a.637.637 0 0 1-.47-.192z" class="color000000 svgShape"/><path fill="#f3f7fd" d="M154.426 171.025v21.026c0 1.76-1.43 3.19-3.189 3.19h-23.246c-1.76 0-3.19-1.43-3.19-3.19v-21.026c0-1.77 1.43-3.19 3.19-3.19h23.246c1.76 0 3.19 1.42 3.19 3.19zM187.51 171.025v21.026c0 1.76-1.43 3.19-3.189 3.19h-23.246c-1.76 0-3.19-1.43-3.19-3.19v-21.026c0-1.77 1.43-3.19 3.19-3.19h23.246c1.76 0 3.19 1.42 3.19 3.19zM220.594 171.025v21.026c0 1.76-1.43 3.19-3.19 3.19H194.16c-1.76 0-3.19-1.43-3.19-3.19v-21.026c0-1.77 1.43-3.19 3.19-3.19h23.246c1.76 0 3.19 1.42 3.19 3.19zM154.426 207.217v21.026c0 1.76-1.43 3.19-3.189 3.19h-23.246c-1.76 0-3.19-1.43-3.19-3.19v-21.026c0-1.77 1.43-3.19 3.19-3.19h23.246c1.76 0 3.19 1.42 3.19 3.19zM187.51 207.217v21.026c0 1.76-1.43 3.19-3.189 3.19h-23.246c-1.76 0-3.19-1.43-3.19-3.19v-21.026c0-1.77 1.43-3.19 3.19-3.19h23.246c1.76 0 3.19 1.42 3.19 3.19zM220.594 207.217v21.026c0 1.76-1.43 3.19-3.19 3.19H194.16c-1.76 0-3.19-1.43-3.19-3.19v-21.026c0-1.77 1.43-3.19 3.19-3.19h23.246c1.76 0 3.19 1.42 3.19 3.19z" class="colorf3f6fd svgShape"/><path fill="#ffd764" d="M150.227 175.64v11.797c0 1.3-1.05 2.35-2.35 2.35h-16.526c-1.3 0-2.35-1.05-2.35-2.35V175.64c0-1.3 1.05-2.35 2.35-2.35h16.527c1.3 0 2.35 1.05 2.35 2.35z" class="colorffd964 svgShape"/><path fill="#4a584e" d="M148.175 186.606c.103.088.118.24.034.349a.252.252 0 0 1-.349.034l-6.717-5.492-1.372 1.126c-.049.034-.103.054-.157.054s-.108-.02-.157-.054l-1.377-1.126-6.717 5.492a.252.252 0 0 1-.35-.034.254.254 0 0 1 .035-.35l6.639-5.428-6.639-5.428a.254.254 0 0 1-.034-.35.254.254 0 0 1 .35-.034l6.863 5.61s.005.01.01.01l1.377 1.127 1.338-1.092.014-.015.045-.039 6.85-5.6a.254.254 0 0 1 .348.034.254.254 0 0 1-.034.349l-6.638 5.428 6.638 5.429z" class="color4a5258 svgShape"/><path fill="#34a853" d="M179.236 191.106c-.143 0-.285-.027-.42-.08a27.063 27.063 0 0 1-14.98-14.987 1.181 1.181 0 0 1 .673-1.53l.931-.334 2.333-.894a1.162 1.162 0 0 1 1.5.654 20.817 20.817 0 0 0 1.566 3.105c.247.396.23.898-.043 1.279a28.24 28.24 0 0 0-1.306 2.107 23.709 23.709 0 0 0 4.931 4.931c.752-.422 1.47-.864 2.138-1.314a1.17 1.17 0 0 1 1.252-.03 20.707 20.707 0 0 0 3.105 1.564c.579.23.876.899.658 1.49l-1.234 3.269c-.168.456-.612.77-1.104.77z" class="color61ba76 svgShape"/><path fill="#f3f7fd" d="M223.708 139.668v13.078c0 1.64-1.32 2.97-2.96 2.97h-96.1c-1.63 0-2.96-1.33-2.96-2.97v-13.078a2.96 2.96 0 0 1 2.96-2.959h96.1c1.64 0 2.96 1.32 2.96 2.96z" class="colorf3f6fd svgShape"/><path fill="#7e8ca3" d="M220.748 136.709h-18.646v19.007h18.646c1.64 0 2.96-1.33 2.96-2.97v-13.078c0-1.64-1.32-2.959-2.96-2.959z" class="color8d7ea3 svgShape"/><path fill="#fff" d="M217.38 148.712a4.604 4.604 0 0 0 0-6.503 4.604 4.604 0 0 0-6.503 0 4.602 4.602 0 0 0-.624 5.714l-1.931 1.93a1 1 0 1 0 1.414 1.415l1.93-1.931a4.602 4.602 0 0 0 5.715-.625zm-5.089-1.414c-1.013-1.013-1.013-2.662 0-3.675s2.662-1.014 3.676 0 1.013 2.662 0 3.675-2.662 1.014-3.676 0z" class="colorffffff svgShape"/><path fill="#ea4335" d="M205.778 172.798c-3.631 0-6.571 2.94-6.571 6.57 0 4.5 6.57 10.91 6.57 10.91s6.58-6.41 6.58-10.91a6.57 6.57 0 0 0-6.58-6.57zm0 9.75a3.263 3.263 0 1 1 .009-6.527 3.263 3.263 0 0 1-.01 6.527z" class="colorfe4c40 svgShape"/><path fill="#bbcdea" d="M182.624 212.649v11.17c0 .635-.516 1.15-1.151 1.15h-16.569a1.151 1.151 0 0 1-1.15-1.15v-11.17c0-.636.515-1.151 1.15-1.151h3.64l.843-1.437a.882.882 0 0 1 .76-.435h6.083c.313 0 .602.166.76.435l.844 1.437h3.639c.635 0 1.15.515 1.15 1.15z" class="colorbbcaea svgShape"/><circle cx="173.188" cy="218.233" r="4.51" fill="#fff" class="colorffffff svgShape"/><circle cx="173.188" cy="218.233" r="2.588" fill="#bbcdea" class="colorbbcaea svgShape"/><path fill="#98a5bb" d="m145.9 218.773-7.831 5.395c-.837.586-1.976-.02-1.976-1.035v-10.811c0-1.014 1.14-1.61 1.976-1.035l7.831 5.405a1.27 1.27 0 0 1 0 2.081z" class="colora698bb svgShape"/><circle cx="205.977" cy="214.171" r="2.775" fill="#eec54f" class="coloree984f svgShape"/><path fill="#eec54f" d="M200.342 223.2h10.875c.315 0 .581-.299.481-.614-.73-2.574-3.088-4.483-5.91-4.483s-5.197 1.91-5.927 4.483a.495.495 0 0 0 .481.614z" class="coloree984f svgShape"/><path fill="#649eff" d="M278 109.859v21.204a2.412 2.412 0 0 1-2.413 2.414h-21.205a2.412 2.412 0 0 1-2.413-2.414V109.86a2.412 2.412 0 0 1 2.413-2.413h21.205a2.412 2.412 0 0 1 2.413 2.413z" class="color64d3ff svgShape"/><path fill="#fff" d="M273.478 113.537v11.307c0 1.163-1.191 2.107-2.66 2.107-1.473 0-2.664-.944-2.664-2.107 0-1.166 1.191-2.11 2.663-2.11.677 0 1.29.198 1.757.53v-6.697l-12.208 1.336v8.473c0 1.166-1.192 2.108-2.66 2.108s-2.664-.942-2.664-2.108c0-1.162 1.194-2.107 2.663-2.107.676 0 1.29.199 1.757.527v-9.882c0-.366.275-.673.638-.71l12.585-1.378a.714.714 0 0 1 .793.71z" class="colorffffff svgShape"/><path fill="#ea4335" d="M58.527 133.905h2.347v14.501h-2.347z" class="colorfe4c40 svgShape" transform="rotate(-32.585 59.7 141.155)"/><path fill="#fee9ac" d="m62.858 241.888 5.312 3.645 3.089-1.36s.077-2.547.139-6.33c.03-2.858.077-5.406.077-5.56 0-.386-7.938.077-8.308.2-.155.047-.232 1.792-.263 3.892-.077 3.12-.046 5.235-.046 5.513z" class="colorfec9ac svgShape"/><path fill="#ff9990" d="M62.904 236.375a16.142 16.142 0 0 0 7.644 1.545c.278-.016.572-.031.85-.078.03-2.857.077-5.405.077-5.56 0-.385-7.938.078-8.308.202-.155.046-.232 1.791-.263 3.891z" class="colorffab90 svgShape" opacity=".5"/><path fill="#2e3a31" d="M70.46 239.445s-2.617 3.993-4.392 3.15c-1.774-.843-3.102-5.22-5.235-3.55-1.072.841-.977 6.706-.635 8.764.08.48.493.82.98.82h23.928a.988.988 0 0 0 .932-.642c.362-.968.837-2.768-.272-3.529-1.553-1.064-4.836-.088-7.098-1.685-2.263-1.598-4.969-7.01-8.208-3.328z" class="color2e363a svgShape"/><path fill="#fee9ac" d="m40.72 241.888 5.312 3.645 3.089-1.36s.077-2.547.139-6.33c.03-2.858.077-5.406.077-5.56 0-.386-7.937.077-8.308.2-.154.047-.232 1.792-.263 3.892-.077 3.12-.046 5.235-.046 5.513z" class="colorfec9ac svgShape"/><path fill="#ff9990" d="M40.766 236.375a16.142 16.142 0 0 0 7.644 1.545c.278-.016.572-.031.85-.078.03-2.857.077-5.405.077-5.56 0-.385-7.937.078-8.308.202-.154.046-.232 1.791-.263 3.891z" class="colorffab90 svgShape" opacity=".5"/><path fill="#3a463d" d="M48.323 239.445s-2.618 3.993-4.392 3.15c-1.775-.843-3.103-5.22-5.235-3.55-1.073.841-.978 6.706-.636 8.764.08.48.494.82.98.82h23.928a.988.988 0 0 0 .932-.642c.362-.968.837-2.768-.272-3.529-1.553-1.064-4.835-.088-7.098-1.685-2.263-1.598-4.969-7.01-8.207-3.328z" class="color3a4146 svgShape"/><path fill="#fee9ac" d="M88.236 99.253c.05-.138.075-.201.05-.214-.113-.038-.126.05-.05.214zM80.188 112.468s1.648 2.552 4.401 4.954c1.962 1.723 4.49 3.37 7.381 3.936 6.978 1.383 27.876-5.57 27.876-5.57s6.048 3.407 6.89-.491c.893-4.15-1.018-4.954-1.282-5.193.39.088 4.325.076 5.457-2.389 1.17-2.59-8.94-.189-8.94-.189s1.308-2.552.54-3.143c-1.797-1.408-3.394 4.237-3.394 4.237l-24.205-.264s-1.647-2.062-3.307-4.25c-1.546-2.037-3.105-4.174-3.37-4.853-.766 1.71-8.047 13.215-8.047 13.215z" class="colorfec9ac svgShape"/><path fill="#ff9990" d="M80.188 112.468s1.648 2.552 4.401 4.954c.05-.239.076-.465.113-.704.49-3.018 1.207-6.06 2.83-8.65 1.005-1.61 2.401-3.044 4.073-3.962-1.546-2.037-3.105-4.174-3.37-4.853-.766 1.71-8.047 13.215-8.047 13.215z" class="colorffab90 svgShape" opacity=".5"/><path fill="#98a5bb" d="M26.12 111.007c.281.434.832.937 1.535 1.465 4.102 3.153 13.971 7.735 13.971 7.735l-1.418 8.58-1.852 11.17-1.512 9.188c0 .528 1.02.938 2.754 1.254 6.482 1.196 22.984.985 33.122-.164 2.966-.328 5.368-.738 6.834-1.23 1.007-.328 1.57-.704 1.558-1.079-.117-1.324-.258-2.754-.386-4.242-1.079-11.287-2.227-23.676-2.755-29.184v-.07l2.051 1.09c1.56 1.171 12.492-16.773 10.945-17.945 0 0-.726-.598-2.086-1.547-4.43-3.082-15.34-10.396-29.745-11.826-12.47-1.242-22.655 10.455-28.281 18.765-3.036 4.524-4.735 8.04-4.735 8.04z" class="colora698bb svgShape"/><path fill="#7e8ca3" d="M74.033 101.044c-1.383-.14-2.79-.703-3.739-1.71 5.978 6.82 7.677 15.095 7.677 15.095l2.051 1.09c1.56 1.172 12.492-16.772 10.945-17.944 0 0-.726-.598-2.086-1.547-.55.387-1.102.739-1.664 1.09-2.66 1.63-5.26 2.368-8.25 3.247-1.605.48-3.27.844-4.934.68z" class="color8d7ea3 svgShape"/><path fill="#00671c" d="M36.511 233.582c-.207 2.176 17.51 3.861 17.717 1.685.144-1.512 2.625-6.255 4.472-13.968 5.012-20.881 11.85-58.82 13.881-70.292.054-.27.098-.53.14-.768-10.132 1.146-26.638 1.35-33.13.163.01 6.665-.022 26.51-.541 45.543-.432 15.73-1.188 30.896-2.539 37.637z" class="color003567 svgShape"/><path fill="#00671c" d="m58.7 221.3.637 14.356c-.032.4 1.156.724 2.885.94 4.386.572 12.26.507 12.325-.497 3.943-32.732 6.59-62.958 5.013-87.09-1.47.485-3.878.896-6.838 1.23-.508 2.82-1.383 7.757-2.506 13.882-3.014 16.496-7.778 41.59-11.516 57.178z" class="color003567 svgShape"/><path fill="#024f17" d="M39.05 195.945c.659-.853 1.177-2.236 1.707-3.294a143.98 143.98 0 0 1 19.887-29.502 145.491 145.491 0 0 1 11.937-12.142c.054-.27.098-.53.14-.768-10.132 1.146-26.638 1.35-33.13.163.01 6.665-.022 26.51-.541 45.543zM58.7 221.3l.637 14.356c-.032.4 1.156.724 2.885.94 2.581-6.622 4.602-13.493 6.136-20.407 3.791-17.035 4.483-34.795 1.858-52.068-3.014 16.496-7.778 41.59-11.516 57.178z" class="color022e4f svgShape"/><path fill="#7e8ca3" d="M26.12 111.01c.288.432.837.928 1.53 1.464 4.117 3.15 13.973 7.725 13.973 7.725l-1.412 8.587-1.856 11.175-1.516 9.19c.013.522 1.032.927 2.758 1.254 6.483 1.19 22.99.98 33.12-.17 2.968-.327 5.373-.745 6.837-1.228 1.006-.327 1.568-.706 1.555-1.085-.118-1.32-.261-2.745-.392-4.235-.065-.066-.13-.118-.196-.183-3.033-2.693-7.137-3.909-11.176-4.118-4.051-.209-8.077.51-12.038 1.307-1.516.314-3.045.628-4.574.51-1.53-.13-3.098-.758-4-2.013-1.059-1.464-.98-3.502-.34-5.189.64-1.699 1.42-10.42 2.4-11.936 1.428-4.636 1.948-13.392 2.462-22.178-1.424 3.36-2.313 7.006-4.117 10.169-.915 1.62-1.96 3.28-3.607 4.156-1.556.837-3.477.81-5.137.222-1.673-.588-3.11-1.685-4.353-2.927-2.391-2.366-4.156-5.333-5.176-8.536-3.045 4.51-4.744 8.04-4.744 8.04z" class="color8d7ea3 svgShape"/><path fill="#fee9ac" d="M51.483 85.017c-.287 3.203 12.987 3.146 12.203.035-.431-1.673-.941-.89-.614-4.993-.053 0-.197 0-.432-.013-3.699-.288-8.404-4.105-8.914-4.536 0 .013.013.04.013.053.275 1.189.34 2.313.275 3.359-.236 3.738-2.466 5.285-2.53 6.095z" class="colorfec9ac svgShape"/><path fill="#ff9990" d="M54.014 78.922c1.934 1.241 5.254 2.653 9.058 1.137-.053 0-.197 0-.432-.013-1.49-.092-6.457-.693-8.9-4.483.274 1.189.339 2.313.274 3.359z" class="colorffab90 svgShape" opacity=".5"/><path fill="#fee9ac" d="M53.674 75.471s0 .013.013.013c.013.013.026.013.039.026.523.445 5.594 4.562 9.346 4.549h.013c.51 0 .993-.079 1.437-.262 3.399-1.333 5.15-8.94 3.817-15.227l-.013-.013c-.732-3.49-2.444-6.588-5.359-7.986-8.156-3.922-12.103 6.47-12.169 6.561 0 .183 2.627 5.608 2.784 5.947-.287-.261-4.313-3.75-5.476.327-1.765 6.183 5.568 6.065 5.568 6.065z" class="colorfec9ac svgShape"/><path fill="#2e3a31" d="M37.959 80.357c.68 3.317 14.67 4.376 16.301 2.55 1.61-1.793-.41-7.097-.572-7.422-.011 0-.011-.01-.011-.01s-7.335.119-5.574-6.071c1.21-4.235 5.498-.314 5.498-.314 2.43-.799 7.884-10.849 8.826-11.246.745 2.615 5.596 6.472 5.898 6.709l.01.011c1.34 6.298-.42 13.903-3.812 15.232-.443.183-.93.259-1.437.259.778 5.92 9.096 3.401 10.716 2.43 1.875-1.123 3.5-2.009.745-6.384-2.765-4.364-4.159-13.535-6.125-17.932-1.955-4.397-6.2-4.008-6.2-4.008-7.778-5.164-14.886.594-16.096 6.773-1.221 6.169-8.848 16.096-8.167 19.423z" class="color2e363a svgShape"/><path fill="#2b4f35" d="M63.518 74.193c.044.028-.303.454-1.25.467-.787-.025-1.522-.404-2.08-.916-.636-.639-.785-1.068-.736-1.1.07-.053.33.302.96.85.522.476 1.176.808 1.87.83.819.051 1.193-.218 1.236-.13zM62.955 71.781c-.013-.103.52-.026 1.32-.432.165-.093.328-.203.329-.303.021-.116-.06-.29-.166-.456-.21-.344-.443-.684-.645-1.053-.474-.9-.332-1.468-.272-1.446.09-.002.075.48.566 1.284.192.35.422.686.638 1.04.103.178.247.387.21.687-.07.329-.33.433-.5.543-.476.23-.869.237-1.113.23-.25-.013-.368-.058-.367-.094z" class="color4f2d2b svgShape"/><ellipse cx="59.452" cy="67.631" fill="#2b4f35" class="color4f2d2b svgShape" rx=".827" ry="1.127"/><ellipse cx="65.905" cy="67.703" fill="#2b4f35" class="color4f2d2b svgShape" rx=".775" ry="1.056"/><path fill="#2b4f35" d="M66.922 65.459c-.05.063-.272-.077-.739-.239a2.637 2.637 0 0 0-1.23-.18c-.494.022-.746.093-.777.016-.028-.056.19-.259.745-.35.47-.045.95.025 1.388.202.507.247.657.503.613.55zM60.953 64.791c-.04.07-.28-.035-.766-.124a2.638 2.638 0 0 0-1.244.009c-.484.095-.722.203-.765.132-.036-.051.149-.284.684-.459a2.973 2.973 0 0 1 1.402-.01c.538.168.726.399.69.452z" class="color4f2d2b svgShape"/><path fill="#fee9ac" d="M22.17 124.907c2.965 6.154 28 19.398 28 19.398s8.427 9.845 12.026 1.758c2.097-4.665-4.595-6.036-7.173-6.388 1.582.117 4.453.129 3.375-1.594-1.477-2.344-6.505-1.582-6.505-1.582l-14.111-12.951.176-.153 3.668-3.2s-9.857-4.558-13.97-7.723c0 0-2.04 2.895-3.67 5.977-1.347 2.544-2.414 5.216-1.816 6.458z" class="colorfec9ac svgShape"/><path fill="#ff9990" d="M52.725 73.17c.02.02-.072.177-.381.335-.298.149-.865.292-1.53-.007-.558-.274-.899-.856-.993-1.432-.102-.58-.006-1.179.197-1.71.554-1.22.991-1.69 1.034-1.673.092.042-.254.62-.72 1.79-.188.497-.268 1.025-.18 1.535.084.503.369.971.814 1.19a1.758 1.758 0 0 0 1.305.121c.292-.088.426-.184.454-.149z" class="colorffab90 svgShape"/><path fill="#6a7d9d" d="M41.621 120.198c2.486.936 4.983 1.867 7.667 2.25.342.03.677.078 1.051.019.176.002.384-.089.58-.191.208-.171.269-.377.34-.536.224-.667.34-1.322.46-1.982.226-1.318.394-2.638.55-3.96.267-2.646.496-5.293.659-7.945.167-2.651.275-5.306.33-7.963l-.78 7.928c-.255 2.641-.479 5.285-.79 7.916a77.002 77.002 0 0 1-.493 3.936c-.107.646-.221 1.305-.413 1.899-.058.142-.11.268-.16.306-.107.037-.195.102-.36.109-.28.06-.617.034-.933.016-1.293-.11-2.59-.422-3.871-.745a66.9 66.9 0 0 1-3.837-1.057zM68.618 97.575c1.07 1.23 2.116 2.47 3.028 3.806.933 1.318 1.8 2.683 2.545 4.116.792 1.407 1.472 2.875 2.104 4.364a49.16 49.16 0 0 1 1.676 4.568c-.244-1.615-.71-3.19-1.256-4.732-.552-1.541-1.247-3.03-2.01-4.48-.8-1.43-1.674-2.824-2.7-4.104-.494-.654-1.058-1.252-1.597-1.866-.568-.582-1.184-1.13-1.79-1.672z" class="color7e6a9d svgShape"/><path fill="#4285f4" d="m69.79 98.724.059.117c.059.07.117.13.176.188-.094-.094-.164-.2-.235-.305z" class="color13b1e2 svgShape"/><path fill="#ff9990" d="M23.987 118.45c.105.011.21.011.316.023a27.047 27.047 0 0 1 10.338 2.871 24.62 24.62 0 0 1 2.285 1.325c.364.234.68.504 1.032.726l3.668-3.2s-9.857-4.558-13.97-7.723c0 0-2.04 2.895-3.67 5.977z" class="colorffab90 svgShape" opacity=".5"/></svg>