<svg
  xmlns="http://www.w3.org/2000/svg"
  viewBox="0 0 1500 1300"
  width="1500"
  height="1300"
  style="width:100%;height:100%;transform:translate(0,0);content-visibility:visible"
>
  <defs>
    <clipPath id="a">
      <path d="M0 0h1500v1300H0z" />
    </clipPath>
  </defs>
  <g clip-path="url(#a)">
    <g style="display:block">
      <path
        fill="#AFE1F9"
        d="M1341.58 587.567c0-67.627-60.903-122.449-136.031-122.449h-28.376c13.273-10.342 21.682-25.607 21.682-42.649 0-31.149-28.054-56.4-62.658-56.4h-94.442c9.552-7.402 15.623-18.341 15.623-30.575 0-22.288-20.072-40.356-44.832-40.356H775.404c-24.761 0-44.834 18.068-44.834 40.356s20.073 40.356 44.834 40.356h88.793c16.533 10.155 27.391 27.244 27.391 46.619 0 17.042-8.409 32.307-21.682 42.649h-146.03c-75.129 0-136.032 54.822-136.032 122.449s60.903 122.449 136.032 122.449H530.417c-34.605 0-62.657 25.252-62.657 56.402 0 31.149 28.052 56.401 62.657 56.401h-78.826c-86.122 0-157.613 56.203-171.802 130.077h-27.602c-53.699 0-97.231 39.184-97.231 87.522v8.866c0 48.337 43.532 87.522 97.231 87.522h914.986c96.322 0 174.407-70.288 174.407-156.994 0-86.705-78.085-156.993-174.407-156.993h-305.33c34.605 0 62.657-25.252 62.657-56.401s-28.052-56.402-62.657-56.402h343.706c75.128 0 136.031-54.822 136.031-122.449M574.254 379.171c24.307 0 44.012-19.554 44.012-43.676s-19.705-43.676-44.012-43.676-44.012 19.554-44.012 43.676 19.705 43.676 44.012 43.676"
      />
      <path
        fill="#94D3E9"
        d="M1351 1134.292c0 23.808-260.938 18.183-593.818 18.183s-611.646 5.625-611.646-18.183 278.767-29.342 611.646-29.342c332.88 0 593.818 5.534 593.818 29.342"
      />
    </g>
    <g style="display:block">
      <path
        fill="#F4A7CB"
        d="M739.044 970.715H220.23V690.493c0-10.636 8.622-19.258 19.258-19.258h480.298c10.636 0 19.258 8.622 19.258 19.258z"
      />
      <path
        fill="#274C9F"
        d="M428.128 1007.021s.497 34.375-24.66 121.878H566.99s-39.038-34.375-32.049-121.878z"
      />
      <path
        fill="#0A3D75"
        d="M534.242 1034.843c-.273-8.615-.098-17.857.698-27.822H428.127s.12 8.512-2.851 27.822z"
      />
      <path
        fill="#1D4690"
        d="m319.915 1100.46-11.977 27.827c-.429.997.301 2.108 1.388 6.106h333.635c1.085-3.998 1.816-5.109 1.387-6.106l-11.977-27.827a1.51 1.51 0 0 0-1.388-.913H321.302c-.603 0-1.148.36-1.387.913"
      />
      <path
        fill="#0046A4"
        d="M753.319 1017.945H201.522c-7.339 0-13.289-5.949-13.289-13.289v-341.63c0-7.34 5.95-13.289 13.289-13.289h565.35a4.17 4.17 0 0 1 4.171 4.169v346.317c0 9.788-7.935 17.722-17.724 17.722"
      />
      <path
        fill="#48C1F0"
        d="M192.194 1013.721V667.053c0-7.448 6.003-13.486 13.41-13.486h565.405c-.175-2.141-1.948-3.831-4.135-3.831H201.523c-7.34 0-13.29 5.95-13.29 13.29v341.629c0 3.713 1.527 7.066 3.982 9.477-.005-.137-.021-.272-.021-.411"
      />
      <path fill="#B0E2FF" d="M739.044 984.053H220.23V671.237h518.814z" />
      <path
        fill="#0A3D75"
        d="M493.569 999.988c0 4.729-3.735 8.563-8.341 8.563s-8.341-3.834-8.341-8.563 3.735-8.561 8.341-8.561 8.341 3.832 8.341 8.561"
      />
      <path
        fill="#0046A4"
        d="M621.102 925.263h-282.93c-6.944 0-12.593 5.65-12.593 12.595 0 6.943 5.649 12.593 12.593 12.593h282.93c6.943 0 12.593-5.65 12.593-12.593 0-6.945-5.65-12.595-12.593-12.595"
      />
      <path
        fill="#FFFFEC"
        d="M621.104 928.426H338.173c-5.208 0-9.43 4.223-9.43 9.431a9.43 9.43 0 0 0 9.43 9.431h282.931a9.43 9.43 0 0 0 9.43-9.431c0-5.208-4.222-9.431-9.43-9.431"
      />
      <path
        fill="#F9386A"
        d="M338.417 932.188a5.666 5.666 0 0 0-4.235 9.438 5.66 5.66 0 0 0 4.235 1.901l15.204-.25v-11.339z"
      />
    </g>
    <g style="display:block">
      <path
        fill="#E1AB1E"
        d="M576.942 872.536H370.25V702.902h41.095l19.012 13.286h146.585z"
      />
      <path fill="#EFEEED" d="M567.08 768.577H395.142v-20.934H567.08z" />
      <path
        fill="#FDC509"
        d="M578.643 872.536H367.584l13.049-112.278h211.059z"
      />
    </g>
    <g style="display:block">
      <path
        fill="#2BC6FF"
        d="m1003.221 1134.393 184.586-.172c9.593-.008 17.363-7.51 17.354-16.756l-.345-346.739c-.009-9.49-7.999-17.174-17.846-17.165l-183.668.17c-9.847.01-17.824 7.71-17.814 17.199l.345 346.74c.009 9.244 7.794 16.732 17.388 16.723"
      />
      <path
        fill="#0046A4"
        d="m1008.012 1130.993 177.984-.166c9.273-.009 16.784-7.303 16.775-16.293l-.335-337.936c-.009-9.228-7.733-16.7-17.251-16.691l-177.097.165c-9.519.008-17.228 7.496-17.219 16.723l.336 337.937c.009 8.989 7.533 16.27 16.807 16.261"
      />
      <path
        fill="#B0E2FF"
        d="m1006.985 1088.791 178.88-.167-.291-292.981-178.879.167z"
      />
      <path
        fill="#FFF"
        d="m1059.702 783.27 71.371-.066-.005-5.058-71.371.067zm17.607 336.881 42.176-.039c1.762-.002 3.19-1.388 3.189-3.097l-.007-5.206c-.001-1.709-1.432-3.093-3.194-3.091l-42.176.039c-1.762.002-3.19 1.388-3.188 3.096l.005 5.208c.002 1.708 1.433 3.091 3.195 3.09"
      />
    </g>
    <g style="display:block">
      <path
        fill="#E1AB1E"
        d="M1152.654 990.758h-121.778v-99.944h24.212l11.202 7.827h86.364z"
      />
      <path fill="#EFEEED" d="M1146.844 929.509h-101.302v-12.334h101.302z" />
      <path
        fill="#FDC509"
        d="M1153.657 990.759h-124.352l7.688-66.152h124.352z"
      />
    </g>
    <g style="display:block">
      <path
        fill="#F9386A"
        d="M1095.326 1016.089c-14.686 0-26.59 11.903-26.59 26.589s11.904 26.59 26.59 26.59 26.59-11.905 26.59-26.59-11.905-26.59-26.59-26.59"
      />
      <path
        fill="#FFF"
        d="M1110.589 1032.37c-2.302.837-4.449 2.032-6.508 3.335-2.069 1.303-4 2.783-5.903 4.302-1.898 1.524-3.717 3.138-5.497 4.797a126 126 0 0 0-3.186 3.106l-8.825-8.08-.986.814 7.83 12.766 1.507 2.457 2.738-2.508v-.002c1.256-1.876 2.679-3.795 4.108-5.634 1.441-1.846 2.932-3.66 4.507-5.394 1.576-1.728 3.197-3.434 4.953-4.972 1.753-1.54 3.598-2.99 5.641-4.123z"
      />
    </g>
    <g style="display:block">
      <path
        fill="#B0D6EA"
        d="m466.704 627.82-6.592 7.633-7.634 8.843v90.925h81.884V627.82z"
      />
      <path
        fill="#FFF"
        d="m463.424 624.54-14.225 16.477v90.925h81.883V624.54z"
      />
      <path
        fill="#B8DDF5"
        d="M519.934 722.062h-23.805v-2.715h23.805zm-14.379-46.984h-48.49v4.122h48.49zm16.201-7.822h-64.692v4.121h64.692zm0-7.823h-64.692v4.123h64.692zm-16.201 41.809h-48.49v4.122h48.49zm16.201-7.822h-64.692v4.122h64.692zm0-7.823h-64.692v4.122h64.692zm-18.382-31.522h-46.31v-4.686h46.31zm-54.175-13.058h14.225V624.54z"
      />
    </g>
  </g>
</svg>
