<svg xmlns="http://www.w3.org/2000/svg" viewBox="0 0 1920 1080" width="1920" height="1080" style="width:100%;height:100%;transform:translate(0,0);content-visibility:visible"><defs><clipPath id="a"><path d="M0 0h1920v1080H0z"/></clipPath><clipPath id="b"><path d="M0 0h1246v841H0z"/></clipPath><clipPath id="d"><path d="M0 0h177v366H0z"/></clipPath><clipPath id="e"><path d="M0 0h254v214H0z"/></clipPath><clipPath id="f"><path d="M0 0h577v458H0z"/></clipPath><clipPath id="g"><path d="M0 0h133v169H0z"/></clipPath><clipPath id="h"><path d="M0 0h70v83H0z"/></clipPath><clipPath id="i"><path d="M0 0h1114v741H0z"/></clipPath><clipPath id="c"><path fill="#fff" d="M1604 172 436 128.5c-16.569 0-48.5 3.5-42.5 44L440 924c0 16.569 25.431 41 42 41l1061 4c23 2.5 42.5-19.931 42.5-36.5L1640 220c0-16.569-1-44-36-48"/></clipPath></defs><g clip-path="url(#a)"><g clip-path="url(#b)" transform="translate(393 128)" style="display:block"><g clip-path="url(#c)" transform="translate(-393 -128)" style="display:block"><path fill="#ECF1FF" d="m484.381 964.228 1059.185 4.049c21.561.082 39.523-16.507 41.151-38.007l54.006-713.475c1.76-23.248-16.145-43.306-39.443-44.185L435.886 128.702c-24.38-.92-44.192 19.472-42.57 43.816l50.202 753.333c1.435 21.535 19.28 38.295 40.863 38.377"/><path fill="#9DBCFE" d="M1034.929 341.728H671.074a1.193 1.193 0 0 1-1.193-1.193v-230.71c0-.659.534-1.193 1.193-1.193h363.855c.658 0 1.194.534 1.194 1.193v230.71c0 .659-.536 1.193-1.194 1.193m-362.662-2.386h361.469V111.018H672.267z"/><path fill="#9DBCFE" d="M1017.976 328.789H688.027a1.193 1.193 0 0 1-1.193-1.193V122.764c0-.659.534-1.193 1.193-1.193h329.949c.658 0 1.194.534 1.194 1.193v204.832c0 .659-.536 1.193-1.194 1.193m-328.756-2.386h327.563V123.957H689.22z"/><path fill="#9DBCFE" d="M997.289 296.474H929.85a1.19 1.19 0 0 1-1.192-1.193V156.483c0-.659.533-1.193 1.192-1.193h67.439c.658 0 1.193.534 1.193 1.193v138.798c0 .659-.535 1.193-1.193 1.193m-66.246-2.386h65.052V157.675h-65.052z"/><path fill="#9DBCFE" d="M963.57 174.928a5.12 5.12 0 0 1-5.114-5.114 5.12 5.12 0 0 1 5.114-5.114 5.12 5.12 0 0 1 5.114 5.114 5.12 5.12 0 0 1-5.114 5.114m0-7.842a2.73 2.73 0 0 0-2.727 2.728 2.73 2.73 0 0 0 2.727 2.728 2.73 2.73 0 0 0 2.727-2.728 2.73 2.73 0 0 0-2.727-2.728m-47.05 129.388h-67.44a1.19 1.19 0 0 1-1.192-1.193V156.483c0-.659.533-1.193 1.192-1.193h67.44c.659 0 1.192.534 1.192 1.193v138.798c0 .659-.533 1.193-1.192 1.193m-66.247-2.386h65.054V157.675h-65.054z"/><path fill="#9DBCFE" d="M882.8 174.928a5.12 5.12 0 0 1-5.114-5.114 5.12 5.12 0 0 1 5.114-5.114 5.12 5.12 0 0 1 5.114 5.114 5.12 5.12 0 0 1-5.114 5.114m0-7.842a2.73 2.73 0 0 0-2.728 2.728 2.73 2.73 0 0 0 2.728 2.728 2.73 2.73 0 0 0 2.728-2.728 2.73 2.73 0 0 0-2.728-2.728m-151.542 6.274a5.12 5.12 0 0 1-5.114-5.114 5.12 5.12 0 0 1 5.114-5.114 5.12 5.12 0 0 1 5.114 5.114 5.12 5.12 0 0 1-5.114 5.114m0-7.842a2.73 2.73 0 0 0-2.728 2.728 2.73 2.73 0 0 0 2.728 2.728 2.73 2.73 0 0 0 2.728-2.728 2.73 2.73 0 0 0-2.728-2.728"/><path fill="#9DBCFE" d="M759.881 213.156h-57.244a1.193 1.193 0 0 1-1.193-1.193v-57.244c0-.659.534-1.193 1.193-1.193h57.244c.659 0 1.193.534 1.193 1.193v57.244c0 .659-.534 1.193-1.193 1.193m-56.052-2.385h54.86v-54.86h-54.86zm91.422-15.908a4.76 4.76 0 0 1-4.607-3.582 4.76 4.76 0 0 1 3.435-5.777 4.76 4.76 0 0 1 5.778 3.435 4.76 4.76 0 0 1-4.606 5.924m-.001-7.12q-.29 0-.583.074a2.367 2.367 0 0 0 1.166 4.587 2.37 2.37 0 0 0 1.711-2.877 2.37 2.37 0 0 0-2.294-1.784"/><path fill="#9DBCFE" d="M779.848 236.171a1.194 1.194 0 0 1-1.156-.899l-12.807-50.367a1.193 1.193 0 0 1 .862-1.45l50.367-12.807a1.195 1.195 0 0 1 1.45.863l12.807 50.366a1.194 1.194 0 0 1-.863 1.45l-50.365 12.807a1.2 1.2 0 0 1-.295.037m-11.357-50.698 12.22 48.055 48.053-12.219-12.218-48.055zm-20.115 74.136q-.26 0-.524-.029a4.757 4.757 0 0 1-4.202-5.244 4.75 4.75 0 0 1 5.243-4.204 4.76 4.76 0 0 1 4.204 5.245 4.76 4.76 0 0 1-4.721 4.232m-.008-7.12c-.535 0-1.051.181-1.475.521a2.35 2.35 0 0 0-.872 1.587 2.37 2.37 0 0 0 2.093 2.612 2.375 2.375 0 0 0 2.611-2.094 2.37 2.37 0 0 0-2.357-2.626m3.543 2.757h.014z"/><path fill="#9DBCFE" d="M769.856 298.344q-.066 0-.132-.007l-51.656-5.691a1.194 1.194 0 0 1-1.055-1.317l5.691-51.656a1.19 1.19 0 0 1 1.316-1.055l51.656 5.691a1.194 1.194 0 0 1 1.055 1.317l-5.691 51.656a1.193 1.193 0 0 1-1.184 1.062m-50.341-7.939 49.284 5.43 5.43-49.285-49.285-5.43zm-208.862 714.038H325.237c-8.12 0-14.725-6.606-14.725-14.726V94.886c0-8.12 6.605-14.725 14.725-14.725h185.416c8.12 0 14.725 6.605 14.725 14.725v894.831c0 8.12-6.605 14.726-14.725 14.726M325.237 82.548c-6.803 0-12.338 5.535-12.338 12.338v894.831c0 6.804 5.535 12.339 12.338 12.339h185.416c6.803 0 12.338-5.535 12.338-12.339V94.886c0-6.803-5.535-12.338-12.338-12.338zm171.884 894.831H338.769a1.19 1.19 0 0 1-1.193-1.193v-282.73c0-.659.534-1.193 1.193-1.193h158.062a3 3 0 0 1 .29-.029 1.19 1.19 0 0 1 1.193 1.194v282.758c0 .66-.533 1.193-1.193 1.193m-157.159-2.387h155.966V694.65H339.962zm157.159-307.376a3 3 0 0 1-.314-.028l-158.038-.002a1.19 1.19 0 0 1-1.193-1.193V392.875c0-.659.534-1.193 1.193-1.193h158.029c.091-.01.279-.033.323-.03a1.194 1.194 0 0 1 1.193 1.194v273.577a1.19 1.19 0 0 1-1.193 1.193m-157.159-2.417h155.966v-271.13H339.962zm157.159-298.165a3 3 0 0 1-.318-.028l-158.034-.001a1.193 1.193 0 0 1-1.193-1.194V108.419c0-.66.534-1.194 1.193-1.194h158.352c.66 0 1.193.534 1.193 1.194V365.84a1.19 1.19 0 0 1-1.193 1.194m-157.159-2.417h155.966V109.612H339.962z"/><path fill="#9DBCFE" d="M496.533 358.057h-65.79a1.193 1.193 0 0 1-1.193-1.194V117.927c0-.66.534-1.194 1.193-1.194h65.79c.66 0 1.193.534 1.193 1.194v238.936c0 .66-.533 1.194-1.193 1.194m-64.596-2.387h63.402V119.12h-63.402z"/><path fill="#9DBCFE" d="M485.782 320.619h-44.29c-.66 0-1.194-.534-1.194-1.193v-194.9c0-.66.534-1.193 1.194-1.193h44.29c.66 0 1.194.533 1.194 1.193v194.9c0 .659-.534 1.193-1.194 1.193m-43.097-2.387h41.904V125.72h-41.904zm20.954 33.211c-3.104 0-6.206-1.101-8.569-3.302-2.316-2.161-3.591-5.038-3.591-8.105 0-3.066 1.275-5.944 3.591-8.105 4.725-4.403 12.413-4.402 17.138-.001 2.316 2.161 3.591 5.04 3.591 8.106 0 3.067-1.275 5.944-3.591 8.105v.001c-2.362 2.201-5.467 3.301-8.569 3.301m0-20.441c-2.514 0-5.027.892-6.941 2.675-1.826 1.704-2.832 3.963-2.832 6.359s1.006 4.655 2.833 6.359c3.827 3.566 10.053 3.566 13.88 0 1.827-1.704 2.833-3.962 2.833-6.359s-1.006-4.655-2.833-6.359c-1.913-1.783-4.427-2.675-6.94-2.675m7.755 16.266h.014zm-41.3 10.789h-65.79c-.66 0-1.193-.534-1.193-1.194V117.927c0-.66.533-1.194 1.193-1.194h65.79c.66 0 1.193.534 1.193 1.194v238.936c0 .66-.533 1.194-1.193 1.194m-64.596-2.387H428.9V119.12h-63.402z"/><path fill="#9DBCFE" d="M419.344 320.619h-44.29c-.66 0-1.194-.534-1.194-1.193v-194.9c0-.66.534-1.193 1.194-1.193h44.29c.659 0 1.194.533 1.194 1.193v194.9c0 .659-.535 1.193-1.194 1.193m-43.097-2.387h41.904V125.72h-41.904zm20.953 33.211c-3.103 0-6.207-1.101-8.569-3.302-2.316-2.161-3.591-5.038-3.591-8.105 0-3.066 1.275-5.944 3.591-8.105 4.726-4.403 12.414-4.402 17.137 0 2.316 2.161 3.592 5.039 3.592 8.105s-1.275 5.944-3.591 8.105h-.001c-2.362 2.201-5.465 3.302-8.568 3.302m0-20.441c-2.514 0-5.027.892-6.941 2.675-1.826 1.704-2.832 3.963-2.832 6.359s1.006 4.655 2.833 6.359c3.827 3.566 10.054 3.566 13.881 0 1.827-1.705 2.832-3.962 2.832-6.359s-1.006-4.655-2.833-6.359c-1.913-1.783-4.427-2.675-6.94-2.675m7.755 16.266h.014zm92.285 310.069h-65.79c-.66 0-1.193-.534-1.193-1.194v-256.28c0-.66.533-1.194 1.193-1.194h65.79c.66 0 1.193.534 1.193 1.194v256.28c0 .66-.533 1.194-1.193 1.194m-64.596-2.387h63.402V401.056h-63.402z"/><path fill="#9DBCFE" d="M486.491 617.183h-44.29a1.193 1.193 0 0 1-1.194-1.193V406.942c0-.66.535-1.193 1.194-1.193h44.29c.66 0 1.194.533 1.194 1.193V615.99c0 .66-.534 1.193-1.194 1.193m-43.097-2.387h41.904v-206.66h-41.904zm20.952 35.453a12.13 12.13 0 0 1-8.599-3.555c-4.74-4.742-4.739-12.458 0-17.201 4.744-4.74 12.458-4.738 17.198 0 4.74 4.743 4.739 12.459 0 17.201a12.13 12.13 0 0 1-8.599 3.555m0-21.924a9.75 9.75 0 0 0-6.911 2.855c-3.809 3.812-3.809 10.015.001 13.827 3.809 3.809 10.01 3.809 13.82 0 3.81-3.812 3.81-10.015 0-13.827a9.74 9.74 0 0 0-6.91-2.855m7.755 17.526h.014z"/><g transform="translate(1016.033 548.475)"/></g></g><g clip-path="url(#d)" transform="translate(358.292 613.854)" style="display:block"><path fill="#0F9150" d="M-4.717-8.438C-19.441-.207-29.265 10.244-26.66 14.904s16.653 1.765 31.377-6.466S29.265-10.244 26.66-14.904 10.007-16.669-4.717-8.438" transform="rotate(3.749 -3502.667 1800.929)" style="display:block"/><g style="display:block"><path fill="#18C565" d="M109.412 190.406c-17.188 18.21-26.45 37.382-20.686 42.823s24.37-4.912 41.558-23.122c17.189-18.212 26.45-37.383 20.686-42.823s-24.37 4.912-41.558 23.122"/><path fill="#0F9150" d="m149.524 166.361-61.802 65.47c-3.371-6.81 5.747-24.532 21.687-41.423 15.95-16.9 33.123-27.031 40.115-24.047"/><g transform="rotate(1.343 -8483.255 5213.213)"/></g><g style="display:block"><path fill="#18C565" d="M112.12 137.484c-15.51 11.55-25.117 24.894-21.461 29.803s19.192-.478 34.7-12.029 25.117-24.894 21.46-29.802c-3.655-4.909-19.191.476-34.7 12.028"/><path fill="#0F9150" d="M145.837 124.554 90.07 166.098c-1.658-5.622 7.653-17.894 22.048-28.61 14.375-10.718 28.784-16.123 33.718-12.934"/><g transform="rotate(3.52 -2322.428 2005.334)"/></g><g style="display:block"><path fill="#18C565" d="M115.207 75.163c-19.732 17.923-31.13 37.514-25.457 43.76s26.267-3.222 46-21.144 31.129-37.513 25.457-43.759-26.268 3.221-46 21.143"/><path fill="#0F9150" d="m159.75 52.916-70.958 64.442c-3.017-7.51 8.111-25.58 26.413-42.192 18.312-16.632 37.365-25.978 44.545-22.25"/><g transform="rotate(1.098 -4449.527 6590.941)"/></g><g style="display:block"><path fill="#18C565" d="M63.347 220.024c16.154 4.858 28.004 12.94 26.466 18.052s-15.878 5.32-32.032.463-28.004-12.94-26.466-18.052 15.878-5.32 32.032-.463"/><path fill="#0F9150" d="m89.94 236.925-58.098-17.47c3.091-4.078 16.526-3.94 31.51.573 14.984 4.505 26.273 11.78 26.587 16.897"/><g transform="rotate(3.316 -3930.29 1160.773)"/></g><g style="display:block"><path fill="#18C565" d="M59.09 183.494c21.549 12.758 35.743 28.628 31.705 35.448-4.037 6.82-24.78 2.007-46.328-10.75s-35.742-28.629-31.704-35.449 24.779-2.006 46.327 10.751"/><path fill="#0F9150" d="m91.384 217.325-77.486-45.876c5.9-4.795 25.203.205 45.195 12.044 19.983 11.84 33.647 26.353 32.291 33.832"/><g transform="rotate(1.421 -7870.15 2185.536)"/></g><g style="display:block"><path fill="#18C565" d="M69.454 170.248c14.914 12.31 23.845 26.113 19.95 30.834-3.897 4.72-19.144-1.432-34.058-13.741s-23.846-26.114-19.95-30.834 19.144 1.431 34.058 13.74"/><path fill="#0F9150" d="m90.046 199.913-53.628-44.25c5.086-2.95 19.198 3.168 33.032 14.588s22.522 24.12 20.596 29.662"/><g transform="rotate(-.666 15413.173 -5278.692)"/></g><g style="display:block"><path fill="#18C565" d="M70.152 119.513c17.413 20.182 26.351 41.01 19.964 46.523s-25.684-6.383-43.097-26.565-26.352-41.01-19.964-46.523 25.683 6.382 43.097 26.565"/><path fill="#0F9150" d="m91.252 164.607-62.61-72.579c7.58-2.83 25.358 8.758 41.509 27.487 16.16 18.72 25.026 38.006 21.101 45.092"/><g transform="rotate(5.866 -1234.425 636.453)"/></g><path fill="#0F9150" d="M6.807-4.664c6.692 9.767 9.071 19.773 5.311 22.349S-.114 14.431-6.807 4.664c-6.692-9.767-9.071-19.773-5.311-22.349S.115-14.431 6.807-4.664" transform="rotate(8.086 -773.479 612.226)" style="display:block"/><g style="display:block"><path fill="#18C565" d="M78.416 73.408c9.11 24.13 11.876 45.436 6.179 47.586s-17.702-15.668-26.812-39.798-11.876-45.436-6.179-47.587 17.702 15.668 26.812 39.799"/><path fill="#0F9150" d="M85.691 120.228 52.936 33.454c6.086.62 17.033 17.566 25.48 39.956 8.457 22.389 11.444 42.35 7.275 46.818"/><g transform="rotate(-3.31 1371.766 -1139.816)"/></g><g style="display:block"><path fill="#18C565" d="M90.196 47.03c-6.88 24.858-7.7 46.327-1.831 47.952s16.205-17.21 23.086-42.067 7.701-46.326 1.832-47.951-16.206 17.21-23.087 42.067"/><path fill="#0F9150" d="M111.943 4.93 87.198 94.324c-4.546-4.09-3.386-24.228 2.995-47.29 6.392-23.072 15.737-40.941 21.75-42.106"/><g transform="rotate(.624 -4537.858 9282.737)"/></g><path fill="#0F9150" d="m3.242-124.573 4.379 244.537a7.623 7.623 0 0 1-15.243.273c-.031-.003 4.394-244.716 4.378-244.809.147-4.082 6.26-4.32 6.486-.001" transform="rotate(.357 -32768.164 14273.699)" style="display:block"/><g style="display:block"><path fill="#EBF1FF" d="M109.745 364.97H65.859c-11.391 0-20.888-8.729-21.866-20.097l-7.038-81.771h101.694l-7.038 81.771c-.978 11.368-10.475 20.097-21.866 20.097"/><path fill="#B2E3F2" d="m123.867 263.102-6.281 72.989c-.978 11.368-10.476 20.098-21.867 20.098H51.834c-1.281 0-2.536-.116-3.759-.328 4.004 5.541 10.505 9.109 17.785 9.109h43.885c11.391 0 20.889-8.729 21.867-20.097l7.037-81.771z"/><path fill="#1E2A6E" d="M109.744 365.447H65.859c-11.73 0-21.334-8.827-22.341-20.534l-7.082-82.288h102.732l-.045.517-7.037 81.771c-1.007 11.707-10.612 20.534-22.342 20.534M37.475 263.578l6.993 81.255c.964 11.208 10.16 19.661 21.391 19.661h43.885c11.231 0 20.428-8.453 21.392-19.661l6.993-81.255z"/><path fill="#B2E3F2" d="M147.354 267.492H30.004a6.2 6.2 0 0 1-6.198-6.198v-10.437a6.197 6.197 0 0 1 6.198-6.197h117.35a6.197 6.197 0 0 1 6.198 6.197v10.437a6.2 6.2 0 0 1-6.198 6.198"/><path fill="#FFF" d="M30.004 244.66a6.197 6.197 0 0 0-6.198 6.197v2.455h116.702a6.197 6.197 0 0 0 6.198-6.197v-2.455z"/><path fill="#1E2A6E" d="M147.354 267.969H30.004a6.68 6.68 0 0 1-6.675-6.674v-10.438a.478.478 0 0 1 .953 0v10.438a5.73 5.73 0 0 0 5.722 5.72h117.35a5.727 5.727 0 0 0 5.721-5.72v-10.438a5.727 5.727 0 0 0-5.721-5.72h-44.269a.478.478 0 0 1 0-.954h44.269a6.68 6.68 0 0 1 6.675 6.674v10.438a6.68 6.68 0 0 1-6.675 6.674"/></g></g><g clip-path="url(#e)" transform="translate(191 396)" style="display:block"><g style="display:block"><path fill="#1E286D" d="m14.337 212.977 206.41-44.202a6.56 6.56 0 0 0 5.188-6.416V9.849a6.563 6.563 0 0 0-6.463-6.562L14.296.174a6.56 6.56 0 0 0-6.661 6.521L6.401 206.52c-.026 4.194 3.835 7.335 7.936 6.457"/><path fill="#8B41D1" d="m16.986 212.977 206.41-44.202a6.56 6.56 0 0 0 5.188-6.416V9.849a6.563 6.563 0 0 0-6.463-6.562L16.945.174a6.56 6.56 0 0 0-6.661 6.521L9.05 206.52c-.026 4.194 3.835 7.335 7.936 6.457"/><path fill="#FFF" d="m44.147 39.273 161.893-4.569a3.517 3.517 0 0 0 3.417-3.515V18.61a3.517 3.517 0 0 0-3.523-3.516l-161.893.284a3.517 3.517 0 0 0-3.51 3.517v16.863a3.517 3.517 0 0 0 3.616 3.515"/><path fill="#89EBFC" d="M209.458 158.935a5.19 5.19 0 0 0 5.189-5.188V98.395a5.19 5.19 0 0 0-10.378 0v55.352a5.19 5.19 0 0 0 5.189 5.188m-19.847 4.638h.016a5.19 5.19 0 0 0 5.173-5.205l-.327-107.214a5.19 5.19 0 0 0-5.188-5.173h-.016a5.19 5.19 0 0 0-5.173 5.205l.327 107.214a5.19 5.19 0 0 0 5.188 5.173m-22.079 4.195a5.19 5.19 0 0 0 5.189-5.162l.446-87.607a5.19 5.19 0 0 0-5.163-5.215h-.026a5.19 5.19 0 0 0-5.189 5.162l-.446 87.607a5.19 5.19 0 0 0 5.162 5.215z"/><path fill="#FEA2D5" d="M145.452 172.625h.001a5.19 5.19 0 0 0 5.188-5.19l-.014-67.832a5.19 5.19 0 0 0-5.189-5.188h-.001a5.19 5.19 0 0 0-5.188 5.19l.014 67.832a5.19 5.19 0 0 0 5.189 5.188"/><path fill="#89EBFC" d="M120.724 177.814a5.19 5.19 0 0 0 5.188-5.153l.832-46.461a5.19 5.19 0 0 0-5.153-5.224h-.037a5.19 5.19 0 0 0-5.188 5.153l-.832 46.461a5.19 5.19 0 0 0 5.153 5.224z"/><path fill="#FEA2D5" d="M95.553 183.444a5.19 5.19 0 0 0 5.188-5.142l.654-72.475a5.19 5.19 0 0 0-5.142-5.235h-.048a5.19 5.19 0 0 0-5.188 5.142l-.654 72.475a5.19 5.19 0 0 0 5.142 5.235z"/><path fill="#89EBFC" d="M69.056 189.074a5.19 5.19 0 0 0 5.189-5.179l.194-35.126a5.19 5.19 0 0 0-5.18-5.197h-.009a5.19 5.19 0 0 0-5.189 5.179l-.194 35.126a5.19 5.19 0 0 0 5.18 5.197z"/><path fill="#FEA2D5" d="m41.898 149.805-1.445-.133c0-2.257 39.27-50.148 56.154-70.634l.496-.602 24.317 22.82 51.38-50.641 1.027 1.041-52.383 51.628L97.24 80.569c-21.963 26.657-54.474 66.662-55.342 69.236"/><path fill="#8B41D1" d="m57.623 28.725-.032-1.462 141.834-2.986.032 1.462z"/></g></g><g clip-path="url(#f)" transform="translate(1164 70)" style="display:block"><g style="display:block"><path fill="#9DBCFE" d="M505.371 457.51 29.175 373.916a5.905 5.905 0 0 1-4.883-5.816V115.15a5.9 5.9 0 0 1 4.603-5.759L505.092 1.845c3.692-.834 7.204 1.973 7.204 5.759v444.09c0 3.669-3.311 6.45-6.925 5.816"/><path fill="#FFF" d="M500.84 456.275 24.644 372.681a5.905 5.905 0 0 1-4.883-5.816v-252.95a5.9 5.9 0 0 1 4.603-5.759L500.561.61c3.692-.834 7.204 1.973 7.204 5.759v444.09c0 3.669-3.311 6.45-6.925 5.816"/><path fill="#8B41D1" d="M507.764 6.37v42.62l-488 88.85v-23.93c0-2.76 1.91-5.15 4.6-5.75L500.564.61c3.69-.83 7.2 1.97 7.2 5.76"/><g transform="translate(263.764 228.413)"/><path fill="#89EBFC" d="m260.423 396.285 21.107-68.389c2.489-8.064 13.598-8.842 17.186-1.203l9.423 20.061a9.236 9.236 0 0 0 12.34 4.408l13.743-6.564c4.845-2.314 10.637-.023 12.587 4.98l6.089 15.619c3.211 8.238 15.047 7.69 17.484-.809l13.051-45.525c1.818-6.343 10.889-6.096 12.361.336l3.584 15.664c2.015 8.806 13.459 11.147 18.77 3.839l12.188-16.772c3.709-5.104 11.045-5.818 15.67-1.527l1.351 1.253c5.168 4.796 13.498 3.251 16.604-3.078l13.505-19.063c5.216-7.363 16.811-3.647 16.776 5.376l-.493 128.867a3.06 3.06 0 0 1-3.545 3.009l-227.343-36.559a3.06 3.06 0 0 1-2.438-3.923"/><path fill="#8B41D1" d="M106.47 237.049c-9.831 0-19.257-3.974-26.589-11.219-9.311-9.199-14.651-22.897-14.651-37.58 0-27.492 18.182-51.682 41.394-55.071 10.921-1.592 21.62 1.585 30.137 8.949 10.506 9.083 16.531 23.464 16.531 39.453 0 29.764-21.241 55.164-46.384 55.465zm5.635-100.641q-2.464-.001-4.955.362c-21.471 3.135-38.291 25.748-38.291 51.48 0 13.719 4.947 26.476 13.573 34.998 6.844 6.762 15.236 10.288 24.434 10.169 23.199-.278 42.797-24.015 42.797-51.836 0-14.934-5.568-28.313-15.276-36.707-6.41-5.542-14.179-8.466-22.282-8.466"/><path fill="#8B41D1" d="M109.516 147.039c-.678.048-1.36.113-2.046.213-17 2.482-30.047 20.412-30.047 40.179s13.047 35.636 30.047 35.432c16.996-.204 31.737-16.211 33.459-36.494l-31.413 2.803z"/><path fill="#FDC95A" d="M109.516 147.038v42.134l31.413-2.803c.111-1.306.171-2.629.171-3.968 0-21.285-14.384-36.584-31.584-35.363"/><path fill="#8B41D1" d="m259.963 399.827-1.156-.357 22.145-71.752c1.226-3.975 4.567-6.626 8.717-6.916 4.153-.285 7.826 1.869 9.595 5.634l9.422 20.061a8.57 8.57 0 0 0 4.911 4.459 8.56 8.56 0 0 0 6.621-.341l13.743-6.563a9.87 9.87 0 0 1 7.861-.27 9.87 9.87 0 0 1 5.551 5.576l6.089 15.619c1.659 4.256 5.405 5.615 8.44 5.488 2.992-.138 6.638-1.851 7.899-6.244l13.051-45.525c.907-3.164 3.661-5.176 6.91-5.06 3.289.089 5.887 2.219 6.621 5.427l3.585 15.665c.878 3.84 3.822 6.715 7.681 7.504 3.859.792 7.696-.7 10.01-3.886l12.188-16.771a11.14 11.14 0 0 1 7.923-4.534 11.14 11.14 0 0 1 8.647 2.918l1.35 1.254a9.85 9.85 0 0 0 8.555 2.481 9.83 9.83 0 0 0 7.096-5.382l13.554-19.147c2.531-3.574 6.862-5.021 11.036-3.683 4.171 1.336 6.855 5.031 6.839 9.411l-1.21-.004c.014-3.842-2.34-7.083-5.999-8.255-3.661-1.17-7.457.097-9.678 3.231l-13.505 19.063c-1.516 3.106-4.419 5.308-7.912 5.956a11.04 11.04 0 0 1-9.598-2.785l-1.35-1.253a9.914 9.914 0 0 0-14.769 1.44l-12.188 16.771c-2.6 3.575-6.908 5.248-11.232 4.361-4.33-.886-7.632-4.112-8.617-8.42l-3.585-15.665c-.737-3.223-3.41-4.432-5.476-4.488-2.062-.056-4.802 1.006-5.714 4.185l-13.051 45.525c-1.182 4.126-4.718 6.92-9.005 7.118-4.27.192-8.065-2.257-9.624-6.256l-6.089-15.619a8.55 8.55 0 0 0-4.867-4.891 8.54 8.54 0 0 0-6.895.237l-13.742 6.563a9.78 9.78 0 0 1-7.551.388 9.78 9.78 0 0 1-5.599-5.084l-9.424-20.061c-1.55-3.303-4.774-5.192-8.414-4.941-3.641.255-6.57 2.58-7.645 6.066z"/></g><g style="display:block"><path fill="#1E286D" d="m559.429 164.714-303.245 24.057c-6.821.541-12.654-4.848-12.654-11.69v-32.079a11.726 11.726 0 0 1 10.076-11.61l303.244-43.12c7.062-1.004 13.378 4.477 13.378 11.611v51.14a11.727 11.727 0 0 1-10.799 11.691"/><path fill="#9DBCFE" d="m557.575 162.552-303.244 24.057c-6.821.541-12.654-4.848-12.654-11.69V142.84a11.726 11.726 0 0 1 10.076-11.61l303.244-43.12c7.062-1.004 13.378 4.477 13.378 11.611v51.14a11.73 11.73 0 0 1-10.8 11.691"/><path fill="#ECF1FF" d="M402.597 122.829a1.209 1.209 0 0 1-.15-2.41l118.027-14.908a1.21 1.21 0 1 1 .303 2.401L402.75 122.82a1 1 0 0 1-.153.009m-80.988 10.228a1.21 1.21 0 0 1-.15-2.41l67.378-8.51a1.21 1.21 0 0 1 1.352 1.049 1.21 1.21 0 0 1-1.05 1.352l-67.378 8.51a1 1 0 0 1-.152.009m130.001-5.052a1.21 1.21 0 0 1-.137-2.412l69.013-7.985a1.21 1.21 0 0 1 .277 2.404l-69.013 7.986a1 1 0 0 1-.14.007m-81.959 9.484a1.21 1.21 0 0 1-.137-2.412l67.751-7.84a1.21 1.21 0 0 1 .277 2.404l-67.751 7.84a1 1 0 0 1-.14.008m-48.042 5.559a1.21 1.21 0 0 1-.137-2.412l23.555-2.726a1.211 1.211 0 0 1 .277 2.405l-23.555 2.725a1 1 0 0 1-.14.008m176.939-8.61a1.211 1.211 0 0 1-.126-2.413l22.076-2.321a1.223 1.223 0 0 1 1.33 1.077 1.21 1.21 0 0 1-1.076 1.33l-22.076 2.321a1 1 0 0 1-.128.006m-89.362 9.394a1.21 1.21 0 0 1-.126-2.413l65.702-6.907a1.22 1.22 0 0 1 1.33 1.077 1.21 1.21 0 0 1-1.076 1.33l-65.702 6.907a1 1 0 0 1-.128.006m-87.578 9.207a1.211 1.211 0 0 1-.125-2.413l74.574-7.84a1.22 1.22 0 0 1 1.331 1.077 1.21 1.21 0 0 1-1.077 1.33l-74.574 7.84a1 1 0 0 1-.129.006m138.214-3.075a1.21 1.21 0 0 1-.113-2.414l60.801-5.748a1.21 1.21 0 1 1 .229 2.408l-60.801 5.749a1 1 0 0 1-.116.005m-90.395 8.545a1.211 1.211 0 0 1-.11-2.415l82.389-7.652a1.21 1.21 0 0 1 1.317 1.093 1.21 1.21 0 0 1-1.094 1.317l-82.389 7.652a1 1 0 0 1-.113.005m-47.819 4.521a1.21 1.21 0 0 1-.112-2.414l29.6-2.798c.652-.078 1.255.425 1.319 1.09a1.21 1.21 0 0 1-1.091 1.318l-29.6 2.798a1 1 0 0 1-.116.006m154.102-2.945a1.21 1.21 0 0 1-.1-2.416l44.913-3.769a1.21 1.21 0 1 1 .203 2.411l-44.913 3.77a1 1 0 0 1-.103.004M321.609 173.02a1.21 1.21 0 0 1-.1-2.415l116.089-9.745a1.22 1.22 0 0 1 1.307 1.104 1.21 1.21 0 0 1-1.104 1.307l-116.089 9.745a1 1 0 0 1-.103.004"/><path fill="#FFF" d="m290.593 174.591-35.003 3.123a3.624 3.624 0 0 1-3.946-3.609v-30.317a3.624 3.624 0 0 1 3.151-3.593l35.003-4.606a3.623 3.623 0 0 1 4.096 3.592v31.8a3.624 3.624 0 0 1-3.301 3.61"/></g><g style="display:block"><path fill="#1E286D" d="m514.992 281.664-222.197-4.849a8.597 8.597 0 0 1-8.41-8.595v-31.596a8.597 8.597 0 0 1 8.331-8.593l222.197-6.885c4.85-.15 8.864 3.741 8.864 8.594v43.328a8.6 8.6 0 0 1-8.785 8.596"/><path fill="#8B41D1" d="m511.594 281.973-222.197-4.849a8.597 8.597 0 0 1-8.41-8.595v-31.596a8.597 8.597 0 0 1 8.331-8.593l222.197-6.885c4.85-.15 8.864 3.741 8.864 8.594v43.328a8.6 8.6 0 0 1-8.785 8.596"/><path fill="#B2E3F2" d="M311.178 253.53c0 9.775-5.237 17.64-11.617 17.567-6.295-.072-11.337-7.863-11.337-17.403s5.042-17.403 11.337-17.565c6.38-.164 11.617 7.626 11.617 17.401"/><path fill="#ECF1FF" d="M320.443 238.699a1.21 1.21 0 0 1-.024-2.42l187.399-3.822c.635.041 1.221.517 1.234 1.185a1.21 1.21 0 0 1-1.185 1.235l-187.399 3.822zm62.992 9.497a1.21 1.21 0 0 1-.012-2.42l110.745-1.086h.011a1.21 1.21 0 0 1 .012 2.42l-110.745 1.086zm-62.991.617a1.21 1.21 0 0 1-.011-2.42l36.425-.356c.712.043 1.215.53 1.221 1.197a1.21 1.21 0 0 1-1.198 1.223l-36.425.356zm97.17 10.19-97.171-.076a1.21 1.21 0 0 1 .002-2.42h.001l97.171.076a1.21 1.21 0 0 1-.002 2.42"/></g><g style="display:block"><path fill="#1E286D" d="m212.43 447.696-174.1-37.283a5.536 5.536 0 0 1-4.376-5.412V276.364a5.535 5.535 0 0 1 5.451-5.534l173.06-2.626a5.534 5.534 0 0 1 5.618 5.5l1.041 168.546c.022 3.537-3.235 6.187-6.694 5.446"/><path fill="#FEA2D5" d="m210.195 447.696-174.1-37.283a5.536 5.536 0 0 1-4.376-5.412V276.364a5.535 5.535 0 0 1 5.451-5.534l173.06-2.626a5.534 5.534 0 0 1 5.618 5.5l1.041 168.546c.022 3.537-3.235 6.187-6.694 5.446"/><path fill="#8B41D1" d="m187.285 301.183-136.552-3.854a2.966 2.966 0 0 1-2.882-2.965v-10.61a2.966 2.966 0 0 1 2.971-2.966l136.552.24a2.966 2.966 0 0 1 2.961 2.966v14.224a2.967 2.967 0 0 1-3.05 2.965"/><path fill="#89EBFC" d="M47.851 402.115a4.376 4.376 0 0 1-4.376-4.376l.046-47.894a4.377 4.377 0 1 1 8.753 0l-.047 47.894a4.376 4.376 0 0 1-4.376 4.376m16.74 3.91h-.013a4.376 4.376 0 0 1-4.363-4.39l.165-55.227a4.376 4.376 0 0 1 4.377-4.363h.025a4.366 4.366 0 0 1 4.351 4.39l-.164 55.228a4.376 4.376 0 0 1-4.377 4.363"/><path fill="#8B41D1" d="M83.215 409.564a4.377 4.377 0 0 1-4.376-4.354l-.464-71.728c-.012-2.417 2-4.387 4.417-4.399h.033c2.407 0 4.29 1.945 4.303 4.354l.463 71.728a4.376 4.376 0 0 1-4.354 4.399z"/><path fill="#89EBFC" d="M101.838 413.662a4.377 4.377 0 0 1-4.375-4.378l-.017-51.85c0-2.416 2.2-4.376 4.617-4.376h-.319c2.417 0 4.455 1.96 4.455 4.378l.017 51.85a4.377 4.377 0 0 1-4.377 4.376"/><path fill="#8B41D1" d="M122.695 418.038a4.377 4.377 0 0 1-4.376-4.347l-.8-60.409c-.016-2.418 2.146-4.389 4.563-4.406h-.186c2.403 0 4.36 1.94 4.376 4.347l.8 60.409a4.376 4.376 0 0 1-4.346 4.406zm21.231 4.749a4.377 4.377 0 0 1-4.376-4.337l-.507-71.737c-.021-2.417 1.935-4.394 4.352-4.416h.046a4.36 4.36 0 0 1 4.355 4.337l.507 71.737a4.377 4.377 0 0 1-4.337 4.416z"/><path fill="#89EBFC" d="M166.275 427.536a4.376 4.376 0 0 1-4.377-4.369l-.283-94.962c-.004-2.417 2.11-4.42 4.526-4.423l-.15.039a4.376 4.376 0 0 1 4.377 4.369l.283 94.962a4.377 4.377 0 0 1-4.369 4.384z"/></g></g><g clip-path="url(#g)" transform="translate(350 163)" style="display:block"/><g clip-path="url(#h)" transform="translate(932 349)" style="display:block"/><g clip-path="url(#i)" transform="translate(541 284)" style="display:block"><path fill="#1E286D" d="M29.342 40.145c-18.191 0-36.581-.938-54.449-2.837-47.19-5.014-82.725-15.991-97.492-30.117-3.723-3.562-3.462-7.04-2.588-9.33 1.038-2.72 3.684-5.486 7.657-8.221-.772-3.132.291-6.019 3.161-8.477 1.902-1.628 4.578-3.049 7.899-4.28 12.059-8.419 42.684-12.222 77.281-13.087 14.018-1.943 28.538-3.26 42.797-3.744 27.816-.935 73.453.795 93.828 20.033 9.655 1.122 15.909 1.953 17.164 2.123a1.307 1.307 0 0 1 1.124 1.471c-.096.718-.767 1.232-1.472 1.124-.293-.039-5.44-.722-13.97-1.717 1.862 2.203 3.421 4.605 4.632 7.228 5.522 11.965 1.66 21.921-11.17 28.789-25.392 13.592-78.658 13.013-120.037 7.942-39.338-4.823-89.085-16.663-99.829-34.16a14 14 0 0 1-.498-.881c-3.161 2.277-5.269 4.558-6.121 6.791-.872 2.286-.234 4.413 1.952 6.503C-90.915 33.873 26.64 46.525 112.144 30.373a1.306 1.306 0 0 1 1.529 1.043 1.307 1.307 0 0 1-1.044 1.529c-25.227 4.768-53.998 7.2-83.287 7.2M-114.429-9.468q.231.481.54.982c8.31 13.535 47.659 26.77 97.914 32.93 51.499 6.316 98.007 3.312 118.483-7.651 11.732-6.28 15.011-14.583 10.027-25.383-1.466-3.177-3.603-6.113-6.373-8.798-3.155-.36-6.655-.747-10.451-1.151 3.843 2.59 6.461 5.307 7.893 8.029 3.185 1.423 5.743 2.91 7.562 4.458 4.247 3.615 3.617 6.87 2.339 8.966-1.795 2.944-5.621 5.4-11.013 7.413a26 26 0 0 1-2.82 1.979C84.756 21.433 48.389 25.835 4.761 23.798-39.098 21.749-77.814 13.661-96.28 2.688c-8.302-4.932-13.318-9.619-15.005-13.996a59 59 0 0 0-3.144 1.84m5.485-3.064c1.284 3.817 6.026 8.227 14.003 12.967 36.172 21.496 146.082 28.237 186.07 13.059-5.616 1.179-12.043 2.1-19.043 2.782-20.992 4.294-56.286 4.54-92.743.486-22.633-2.517-47.199-7.053-61.619-13.283C-92.392.05-99.497-4.013-101.563-8.724c-.764-1.743-1.181-4.379.769-7.454-2.972 1.198-5.697 2.415-8.15 3.646M-82.59.56c17.237 6.047 46.223 11.001 80.629 13.318C26.55 15.8 52.44 15.57 72.312 13.561a79 79 0 0 0 4.94-1.221c16.037-4.55 25.07-10.997 25.046-17.801-1.606-1.805-3.898-3.59-6.833-5.332-17.534-5.855-47.511-11.02-82.386-14.008-42.09-1.628-83.762-.154-99.965 10.082-6.76 4.269-5.459 7.181-5.032 8.138 1.111 2.487 4.391 4.887 9.328 7.141m187.021-2.791c-1.609 5.121-7.161 9.754-16.235 13.566 5.081-.958 9.458-2.082 13.028-3.363 2.724-2.347 4.012-4.914 3.836-7.664a7.6 7.6 0 0 0-.629-2.539m.428-4.31c1.727 2.156 2.669 4.386 2.816 6.684.123 1.93-.273 3.767-1.179 5.5 2.261-1.255 3.875-2.622 4.773-4.094.702-1.151 1.279-2.985-1.8-5.606-1.171-.995-2.74-1.989-4.676-2.971q.03.179.05.358zM-95.305-18.269c-1.021.825-1.901 1.69-2.629 2.595-1.662 2.066-2.064 3.995-1.229 5.898.785 1.793 2.63 3.567 5.412 5.292a8 8 0 0 1-.558-1.029c-1.211-2.71-1.147-6.891 6.024-11.421C-78.77-22.943-61.167-26.062-40-27.347c-9.248-.064-17.866.126-25.719.543-11.018 2.57-21.075 5.466-29.586 8.535m-15.862.31a14 14 0 0 0-1.497 1.112c-1.783 1.526-2.602 3.139-2.469 4.938a68 68 0 0 1 3.248-1.855 8 8 0 0 1 .287-3.05q.171-.583.431-1.145M96.57-13.225q1.384.467 2.678.947c-2.092-2.346-5.266-4.676-9.555-6.889a1594 1594 0 0 0-8.738-.87c6.319 2.151 11.526 4.425 15.615 6.812m-202.022-7.464c-1.923 1.436-3.151 2.977-3.633 4.614a5.4 5.4 0 0 0-.189.971c3.63-1.789 7.78-3.545 12.368-5.244 1.787-1.445 3.931-2.766 6.395-3.969-5.992.982-11.016 2.196-14.941 3.628m162.563-1.449c7.504 1.198 14.631 2.522 21.141 3.963q-.578-.189-1.17-.375a190 190 0 0 0-9.435-2.709q-5.145-.45-10.536-.879m32.891.304c4.537.473 8.747.931 12.557 1.361-16.083-12.228-47.153-18.275-88.862-16.856-5.736.194-11.538.529-17.344.989 6.384.081 12.774.244 19.106.478 35.863 1.328 60.372 6.946 74.543 14.028m-22.57-2.167c4.941.436 9.691.879 14.204 1.322C67.317-28 45.392-32.132 15.362-33.244a809 809 0 0 0-16.028-.438c24.358 1.371 48.834 4.803 68.098 9.681M10.74-27.622c12.482.441 25.027 1.171 36.996 2.039-29.819-5.368-65.128-7.339-93.799-5.262q-2.557.46-5.074.945c16.168-.25 33.491.314 49.804 1.383 3.987.261 8.021.561 12.073.895m-79.031-3.324c-8.283 1.019-15.474 2.3-21.424 3.82 3.231-.501 6.673-.929 10.286-1.289 3.431-.968 7.164-1.81 11.138-2.531" transform="translate(797.159 700.617)" style="display:block"/><g style="display:block"><path fill="#FDC95A" d="M778.837 684.702c-13.467.001-26.786-4.81-41.846-10.246-24.965-9.013-56.035-20.229-101.445-13.446-85.898 12.837-229.192 23.868-271.886 1.65-26.999-14.051-22.817-58.528-18.773-101.541 2.722-28.961 5.294-56.315-1.032-74.414-4.525-12.947-11.54-21.113-20.85-24.269-16.389-5.559-34.702 6.273-34.885 6.393l-1.439-2.19c.79-.518 19.543-12.65 37.151-6.688 10.12 3.425 17.689 12.136 22.496 25.888 6.515 18.64 3.917 46.271 1.166 75.524-3.962 42.15-8.06 85.736 17.375 98.973 41.841 21.774 187.994 10.38 270.289-1.916 46.069-6.885 77.479 4.458 102.722 13.572 17.48 6.312 32.584 11.764 47.994 9.61 33.934-4.734 35.834-59.344 39.619-168.14.361-10.373.74-21.235 1.164-32.589 2.548-68.093 20.399-102.577 34.926-119.516 15.915-18.559 31.115-20.759 31.755-20.843l.345 2.595c-.148.02-15.014 2.233-30.289 20.161-14.178 16.64-31.608 50.568-34.119 117.7-.425 11.352-.802 22.212-1.163 32.584-3.836 110.261-5.762 165.605-41.875 170.643a53 53 0 0 1-7.4.505"/><path fill="#FF6387" d="M470.854 684.331c-46.577 0-89.18-4.736-109.313-12.926-21.089-8.578-14.151-52.683-6.807-99.376 7.025-44.664 14.29-90.85-1.098-111.046-9.134-11.988-19.364-18.243-30.409-18.594-19.199-.595-34.683 16.971-34.837 17.148l-1.98-1.716c.661-.762 16.398-18.723 36.884-18.051 11.877.371 22.786 6.974 32.425 19.626 16.066 21.086 8.714 67.833 1.603 113.04-7.179 45.638-13.96 88.747 5.205 96.543 37.736 15.351 155.367 18.404 228.597.609 64.011-15.552 119-.512 148.543 7.567 3.549.971 6.615 1.809 9.252 2.468 14.39 3.598 26.732 1.336 37.736-6.914 28.331-21.246 44.564-79.938 48.25-174.449 4.413-113.134 28.042-154.61 47.086-169.483 12.37-9.659 22.295-7.73 22.709-7.643l-.535 2.564c-.081-.016-9.289-1.73-20.706 7.258-18.546 14.604-41.571 55.502-45.935 167.407-3.719 95.336-20.305 154.7-49.299 176.44-11.509 8.633-24.954 11.107-39.94 7.361-2.665-.667-5.745-1.508-9.308-2.483-29.315-8.018-83.881-22.943-147.233-7.546-34.71 8.433-79.379 12.196-120.89 12.196"/><g transform="translate(904.47 554.15)"/></g><path stroke="#1D276C" stroke-width="3" d="M-126 211s56 12 52-54-3.73-74.684 1.27-83.684 18.653-11.923 25.653 17.077 31.978 110.793 53.164 94.065c20.688-16.443-8.158-68.734-14.551-86.846-7.77-22.158-25.17-75.596-2.311-87.795 23.54-12.387 57.01-4.78 43.086 59.46C17.888 135.168-18 261-20 301s-13 71 36 91 107 20 137 16 124-28 122-6-24 14-43 13-38-4-36 10 47 21 102-4" fill="none" transform="translate(419 256)" style="display:block"/><g style="display:block"><path fill="#B2E3F2" d="M1072.342 711.093c-4.287 0-7.795-3.483-7.914-7.857l-8.336-306.025h32.5l-8.336 306.025c-.119 4.374-3.627 7.857-7.914 7.857"/><path fill="#EBF1FF" d="m1070.734 709.852-8.515-312.641h-6.127l8.335 306.024c.105 3.86 2.853 7.018 6.443 7.708-.057-.36-.126-.716-.136-1.091"/><path fill="#9DBCFE" d="m1088.59 397.21-.25 9.35h-32l-.25-9.35z"/><path fill="#B2E3F2" d="M904.47 711.093c-4.287 0-7.795-3.483-7.914-7.857l-8.336-306.025h32.5l-8.336 306.025c-.119 4.374-3.627 7.857-7.914 7.857"/><path fill="#EBF1FF" d="m902.863 709.852-8.515-312.641h-6.127l8.335 306.024c.105 3.86 2.853 7.018 6.443 7.708-.057-.36-.126-.716-.136-1.091"/><path fill="#9DBCFE" d="m920.72 397.21-.25 9.35h-32l-.25-9.35z"/><path fill="#B2E3F2" d="M1113.997 399.762H862.815v-14.768a8.837 8.837 0 0 1 8.837-8.838h233.508a8.837 8.837 0 0 1 8.837 8.838z"/><path fill="#FFF" d="M868.369 392.454c0-4.931 3.917-8.928 8.748-8.928h233.687c1.095 0 2.133.229 3.099.604-.472-4.476-4.142-7.974-8.653-7.974H871.563c-4.831 0-8.748 3.998-8.748 8.929v14.677h5.554z"/><path fill="#1E286D" d="M1065.303 376.691H929.331a4.857 4.857 0 0 1-4.857-4.856v-.108a4.857 4.857 0 0 1 4.857-4.856h135.972a4.857 4.857 0 0 1 4.857 4.856v.108a4.857 4.857 0 0 1-4.857 4.856"/><path fill="#9DBCFE" d="M1025.886 376.691H885.478c-2.291 0-4.425-1.894-4.743-4.209l-11.996-87.27c-.199-1.451.812-2.637 2.247-2.637h140.511c2.291 0 4.426 1.894 4.744 4.209l11.981 87.165c.207 1.508-.844 2.742-2.336 2.742"/><path fill="#FFF" d="M874.65 289.637c-.199-1.45.812-2.638 2.247-2.638h139.373l-.029-.215c-.318-2.315-2.453-4.21-4.743-4.21H870.986c-1.435 0-2.446 1.188-2.247 2.638l11.996 87.269c.318 2.315 2.453 4.211 4.744 4.211h1.138z"/></g><g style="display:block"><path fill="#FA608F" d="M549.185 562.505s10.968 21.326 13.405 28.637c2.437 7.312-11.577 22.341-11.577 22.341l-22.34-1.422-3.859-14.014s2.031-12.389 2.437-17.466 21.934-18.076 21.934-18.076"/><path fill="#8B41D1" d="M570.779 608.218c-.585-3.267-4.618-16.293-6.073-18.921a2.2 2.2 0 0 0-.245-.37c-1.173-1.305-4.046 1.002-4.046 1.002s-.738 2.987-2.387 6.633c-1.541 3.408-5.616 6.738-11.514 6.795q-.618.007-1.261-.036c-4.071-.275-8.645-4.938-12.802-8.64-2.47-2.201-4.791-4.06-6.773-4.461q-.002-.003-.005-.002a3 3 0 0 0-.38-.058c-3.89-.335-18.949 5.921-28.302 10.011a115 115 0 0 0-13.495 7.006 333 333 0 0 1-6.025 3.576 92 92 0 0 1-2.838 1.582c-1.032.544-1.762.88-1.995.88-.741-.001-4.799.471-7.99.856-5.517.666-9.563 5.414-9.5 10.971v.006c-.166 3.861 2.824 6.464 6.22 8.309 4.446 2.415 12.304 3.314 14.138 3.575 7.811 1.112 33.685 1.085 37.322 1.09 5.345.007 29.276-.614 37.415-.83a98 98 0 0 0 5.417-.293l12.153-.994a3.127 3.127 0 0 0 2.872-3.179l-.096-4.814c-.069-3.452.035-6.904.248-10.35.23-3.714.246-7.643-.058-9.344"/><path fill="#1E286D" d="m536.999 595.513-.037-.139c-.583-2.167-10.275-8.243-11.715-10.206-1.297-1.768-4.226-.664-7.422 2.725-2.69 2.853-6.935 5.156-10.274 7.209-9.523 3.805-21.761 10.038-25.59 12.338-2.672 1.605-10.967 4.418-8.271 9.232a5.28 5.28 0 0 0 5.549 1.794l3.996-.529a167.3 167.3 0 0 0 48.326-14.026l.718-.332c3.49-.98 5.635-4.559 4.72-8.066m33.591 31.939c-.12.024-.237.055-.361.065l-12.464 1.019a101 101 0 0 1-5.554.3c-8.346.221-32.889.859-38.37.852-3.73-.005-30.263.023-38.273-1.118-1.881-.268-9.939-1.189-14.498-3.666-2.022-1.099-3.899-2.463-5.089-4.187a11.1 11.1 0 0 0-.834 4.325v.006c-.166 3.861 2.826 6.464 6.221 8.309 4.446 2.415 12.304 3.314 14.138 3.575 7.811 1.112 33.685 1.085 37.322 1.09 5.345.007 29.276-.614 37.415-.83a98 98 0 0 0 5.416-.293l12.154-.994a3.127 3.127 0 0 0 2.872-3.179l-.096-4.814c-.003-.153.003-.307.001-.46"/><path fill="#404BA4" d="M674.682 425.437c-3.657-13.052-10.158-21.047-10.158-21.047l-96.068 9.6-5.028.612-49.869 6.048s-58.562 4.853-68.545 23.204c-9.983 18.358-.421 48.007 16.938 73.659 16.493 24.373 50.808 50.49 62.722 64.322l1.932 5.155s18.598-3.016 27.907-15.281l-21.501-48.67c-14.199-29.795-31.304-41.138-35.616-44.311l72.073 9.25c2.603.616 8.043 1.827 15.199 2.999 12.951 2.122 31.487 4.1 48.85 2.184 34.175-3.771 34.895-13.173 41.182-25.096 7.932-15.042 2.982-31.908-.018-42.628"/><path fill="#1E286D" d="M674.682 425.437c-3.865 2.001-8.394 3.225-12.621 3.959-18.337 3.172-37.224 2.935-55.505-.504-11.711-2.207-33.028-5.849-43.128-14.29l5.028-.612 96.067-9.601s6.502 7.996 10.159 21.048"/></g><g style="display:block"><path fill="#FA608F" d="m755.833 552.262 12.33-6.007s14.185 20.534 11.03 31.076c-3.155 10.541-18.279 13.81-18.279 13.81l-11.982-2.64-9.343-31.175s14.023-3.979 16.244-5.064"/><path fill="#8B41D1" d="M805.218 574.3c-.13-4.786-.891-23.638-2.148-28.741-.093-.321-.483-1.448-.921-2.691a5.236 5.236 0 0 0-5.681-3.451c-6.506.932-18.565 2.901-22.473 3.689-4.691.946-12.678 2.434-18.51 7.326-.358.3-.31.8-.29 1.19.54 8.953 12.37 9.393 13.632 15.622.509 2.513.777 4.588.679 6.462-1.596 3.2-4.013 6.226-5.887 8.597-1.691 2.14-3.437 5.577-3.77 6.983s-.007.031-.069.304c-.097.426-.023.166-.037.273s-.037.206-.026.27c1.163 6.539 10.096 19.352 10.057 24.326s-4.342 8.264-5.106 8.297c-4.102.175-7.584.947-11.41 2.57-.999.842-4.796 2.144-1.978 11.017.004.075.333 2.048.762 3.678.277 1.056 1.081 1.896 2.136 2.178 1.907.51 4.538.647 6.336.561 4.783-.145 11.084-1.007 17.09-3.025.501-.146 10.256-4.604 15.153-8.734 7.191-5.754 13.966-13.752 14.682-22.423.224-1.711-1.786-27.49-2.221-34.278"/><path fill="#1E286D" d="M805.218 574.3c-.13-4.786-.891-23.638-2.148-28.741-.093-.321-.483-1.448-.921-2.691a5.24 5.24 0 0 0-5.681-3.451c-.564.081-1.181.172-1.819.267.397 1.13.743 2.13.828 2.425 1.219 4.948 1.957 23.229 2.083 27.869.422 6.582 2.371 31.58 2.154 33.239-.694 8.408-7.263 16.164-14.236 21.744-4.748 4.005-14.208 8.328-14.694 8.469-5.824 1.957-11.934 2.792-16.572 2.933-.847.04-1.885.029-2.94-.049l.008.029c.005.075.333 2.048.762 3.678.277 1.056 1.081 1.896 2.136 2.178 1.907.51 4.538.647 6.336.561 4.783-.145 11.084-1.007 17.09-3.025.501-.146 10.256-4.604 15.153-8.734 7.191-5.754 13.966-13.752 14.682-22.423.224-1.711-1.786-27.49-2.221-34.278"/><path fill="#1E286D" d="M770.796 581.002c-1.414-3.406-5.571-4.725-8.615-2.642-.06.041-.112.1-.182.127-4.334 1.688-7.888 8.389-8.243 12.461-.335 3.848 5.655 6.887 7.794 9.797.774 1.053 6.727 6.746 6.677 13.611-.034 4.601-1.947 6.883-3.529 7.916-.331.197-.28 2.533 3.139 1.655 14.431-3.704 7.974-30.842 2.959-42.925"/><path fill="#404BA4" d="M747.815 554.889s-60.929 2.133-84.387 8.835c-12.356 3.53-31.96 15.657-31.96 15.657l29.775-92.588c.734-.98 1.441-1.965 2.125-2.945-21.503 13.696-57.549 10.594-78.7 7.129-5.018 10.599-12.722 84.105-12.722 84.105s-5.371 26.574 3.857 42.093 35.755 12.645 45.813 8.943c10.051-3.709 127.417-38.023 127.417-38.023 7.007-19.802-1.218-33.206-1.218-33.206"/><path fill="#1E286D" d="M663.37 483.85c-.69.98-1.39 1.96-2.13 2.94l-.89 2.76c-23.22 20.63-61.21 29.7-82 33.3 2.11-14.72 4.41-27.84 6.32-31.87 21.15 3.46 57.2 6.56 78.7-7.13"/></g><path fill="#1E286D" d="M5.406-1.298c1.68 6.997.621 13.251-2.365 13.968S-3.726 8.295-5.406 1.298s-.621-13.251 2.365-13.968S3.726-8.295 5.406-1.298" transform="rotate(-8.923 2940.543 -2736.954)" style="display:block"/><path fill="#FF6387" d="M11.046 8.924S.624 8.416-3.618 9.699l-7.428-15.941s8.604-1.451 17.612-3.457z" transform="rotate(-8.923 2948.342 -2720.954)" style="display:block"/><g style="display:block"><path fill="#FDC95A" d="M455.856 412.394a47 47 0 0 1-1.052-1.38c.13-.01 14.224-6.036 27.42-15.263 21.713-15.183 46.879-36.653 46.879-36.653s38.44 5.252 18.482 37.257c-4.092 6.562-55.707 31.454-83.261 38.595l-.007-.136a39.65 39.65 0 0 0-8.461-22.42"/><path fill="#1E286D" d="M547.588 396.357c-2.175 3.49-17.817 12.18-36.13 20.613a71.5 71.5 0 0 0 19.883-23.903l1.115-2.18c-7.541-8.705-11.508-17.334-13.548-23.3 3.082-2.483 10.144-8.698 10.144-8.698l2.988.786 13.464 5.811c7.296 5.273 12.216 14.623 2.084 30.87"/></g><g style="display:block"><path fill="#FFDF99" d="m562.144 418.307.05 7.857s18.216 6.464 56.423 1.21 51.208-17.838 51.208-17.838l-6.91-10.866s-18.53 17.537-50.387 18.99-50.384.647-50.384.647"/><path fill="#FDC95A" d="M493.065 302.84c-8.406-25.045 19.396-51.508 28.675-55.933 23.58-11.246 59.625-21.205 81.959-4.074 13.704 10.513 29.412 57.635 34.96 106.422 1.051 9.24 15.383 35.48 23.407 45.352 2.376 2.924 1.54 7.278-1.745 9.127l-14.922 8.4c-46.615 19.273-78.995 9.362-78.995 9.362a16.33 16.33 0 0 1-12.08-6.944 29276 29276 0 0 0-31.264-44.805c-14.593-20.854-22.521-44.638-29.995-66.906"/><path fill="#1E286D" d="M614.801 257.177s-10.3 42.183-24.356 57.744h.001c13.15-1.39 23.854-11.276 26.16-24.296 1.845-10.413 2.385-22.836-1.805-33.448"/></g><path fill="#1E286D" d="M3.605 3.605c-5.244 5.244-11.109 7.881-13.1 5.89s.646-7.856 5.89-13.1 11.109-7.881 13.1-5.89-.646 7.856-5.89 13.1" transform="rotate(-3.751 4999.512 -6284.522)" style="display:block"/><g style="display:block"><path fill="#FF6387" d="M434.324 311.467c-3.328-.831-6.157-2.142-8.316-3.38-2.197-1.259-3.96-3.192-4.865-5.558l-.014-.036c-2.628-6.9-3.996-15.719-4.235-16.425-.341-1.01-7.134-6.29-10.35-9.116a23.4 23.4 0 0 0-4.173-2.934 118 118 0 0 1-2.694-1.525c-1.527-.917-2.921-1.853-3.44-2.481-1.36-1.648-2.442-2.914-2.837-3.23-.061-.05-.169-.037-.294.003-.616.07-2.19 1.585-2.111 3.932-.55-.458-4.373-3.655-5.33-4.685-1.032-1.11-4.88-3.467-5.641-3.602-.498-.088-1.646.444-2.34 1.302-.446.489-.756 1.097-.685 1.771.167 1.565 1.897 3.996 2.222 4.44-.52.234-2.31 1.128-2.657 2.526-.005.02-.007.045-.011.066-.013.042-.038.078-.048.12-.343 1.438.766 3.928 1.047 4.522-.475.28-3.208 1.951-3.415 3.575-.033.187-.02.42.007.664.008.116.03.243.05.368v.001c.158.98.647 2.178.825 2.59-.13.403-1.136 3.561-1.012 4.459.005.039.056.126.097.202v.008c.058.392 1.99 2.735 4.55 5.548 1.919 2.145 9.835 9.886 11.002 10.62 4.311 2.707 17.854 7.988 20.362 9.43l.012.007a8.4 8.4 0 0 1 2.1 1.718c4.126 4.647 8.653 10.85 8.653 10.85s21.428-13.778 13.541-15.75"/><path fill="#1E2A6E" d="M395.739 283.11a.2.2 0 0 1-.092-.028c-6.709-4.347-16.445-12.922-16.543-13.008a.174.174 0 0 1-.015-.246.173.173 0 0 1 .247-.015c.098.085 9.814 8.643 16.5 12.975a.176.176 0 0 1 .052.243.17.17 0 0 1-.15.079m-5.707 3.856a.2.2 0 0 1-.084-.022c-5.382-3.12-12.443-9.573-12.514-9.638a.174.174 0 0 1-.01-.247.18.18 0 0 1 .246-.012c.07.066 7.105 6.494 12.453 9.594a.174.174 0 0 1-.09.325m-3.476 6.792a.2.2 0 0 1-.079-.018c-3.302-1.728-11.24-8.929-11.575-9.235a.175.175 0 1 1 .234-.258c.082.074 8.242 7.476 11.504 9.182a.177.177 0 0 1 .074.237.17.17 0 0 1-.158.092"/><path fill="#1E2A6E" d="M389.654 305.387a.2.2 0 0 1-.09-.027c-1.207-.76-9.196-8.59-11.04-10.651-2.042-2.245-4.449-5.04-4.59-5.617l-.006-.015c-.052-.097-.086-.158-.095-.218-.122-.892.769-3.754 1-4.474-.18-.421-.654-1.594-.812-2.572l-.01-.055a4 4 0 0 1-.041-.328c-.035-.306-.038-.528-.006-.708.2-1.57 2.6-3.15 3.363-3.614-.393-.855-1.324-3.101-.991-4.494a.5.5 0 0 1 .035-.097l.024-.091c.33-1.327 1.86-2.21 2.56-2.551-.52-.732-1.973-2.89-2.13-4.354-.068-.65.184-1.309.73-1.908.725-.897 1.924-1.466 2.5-1.355.836.148 4.697 2.536 5.738 3.655.853.917 4.044 3.606 5.028 4.431.09-2.179 1.572-3.652 2.264-3.733.097-.034.286-.076.423.033.36.288 1.242 1.292 2.863 3.255.436.53 1.578 1.352 3.395 2.444.782.459 1.684.97 2.68 1.518a23.5 23.5 0 0 1 4.212 2.96c1.036.91 2.423 2.058 3.891 3.273 3.784 3.134 6.282 5.237 6.51 5.919.057.165.159.685.327 1.546.555 2.841 1.86 9.496 3.906 14.87a.175.175 0 1 1-.328.126c-2.055-5.402-3.363-12.077-3.921-14.927-.154-.79-.265-1.36-.314-1.504-.215-.636-3.647-3.478-6.403-5.76-1.471-1.218-2.858-2.368-3.898-3.283a23.4 23.4 0 0 0-4.15-2.915 118 118 0 0 1-2.69-1.522c-1.853-1.115-3.025-1.961-3.486-2.52-.994-1.205-2.366-2.847-2.809-3.206.002.005-.036.002-.135.033-.549.067-2.065 1.495-1.988 3.76a.17.17 0 0 1-.098.163.17.17 0 0 1-.189-.024c-.177-.146-4.34-3.616-5.346-4.699-1.021-1.098-4.858-3.428-5.543-3.549-.425-.072-1.507.416-2.174 1.24-.34.372-.72.952-.646 1.644.164 1.548 1.982 4.073 2.188 4.355a.175.175 0 0 1-.07.263c-.518.232-2.23 1.09-2.557 2.406l-.015.075q-.014.04-.031.08c-.348 1.435.789 3.948 1.02 4.437a.173.173 0 0 1-.07.225c-.319.188-3.13 1.887-3.33 3.446-.034.2-.012.45.008.624.007.101.024.204.04.305l.009.056c.16.99.664 2.2.814 2.547.018.04.019.084.005.123-.419 1.299-1.101 3.683-1.005 4.382.006.014.032.057.055.1l.023.042.016.044a.3.3 0 0 1 .005.05c.053.276 1.651 2.292 4.504 5.429 2.054 2.294 9.86 9.894 10.967 10.59a.175.175 0 0 1-.096.322"/><path fill="#1E2A6E" d="M400.54 278.83a.16.16 0 0 1-.083-.024c-3.3-1.876-9.52-7.904-9.584-7.965a.174.174 0 0 1-.004-.247.177.177 0 0 1 .247-.003c.063.06 6.253 6.057 9.513 7.913a.173.173 0 0 1-.089.326"/></g><g style="display:block"><path fill="#FFDF99" d="M605.696 246.618c-14.852-12.45-28.726.366-36.57 10.335-3.92 4.983-58.381 73.437-58.381 73.437s-44.57-8.588-54.641-13.774l-25.577-13.172a48.1 48.1 0 0 1-16.702 19.596l-.807.546s60.39 47.805 100.641 46.606c17.063-.508 64.125-44.397 85.137-61.17 13.408-10.704 20.46-27.76 17.738-44.698-1.262-7.857-3.892-11.884-10.838-17.706"/><path fill="#1E2A6E" d="M514.058 370.349q-.2.014-.394.019c-20.836.62-47.123-12.1-65.508-22.879-19.909-11.672-35.096-23.648-35.247-23.766a.176.176 0 0 1-.029-.246.18.18 0 0 1 .247-.029c.15.12 15.32 12.082 35.21 23.742 18.343 10.755 44.567 23.446 65.317 22.828q.19-.006.385-.019c5.71-.374 15.011-5.318 28.411-15.102a.176.176 0 0 1 .244.037.173.173 0 0 1-.037.244c-13.454 9.824-22.818 14.792-28.599 15.17"/></g><g style="display:block"><path fill="#FF6387" d="M457.805 433.36s-.912 4.393-7.123 7.618c-4.052 2.103-13.468 2.72-14.433 2.668s-9.562 4.327-11.675 5.923-4.71-2.818-2.827-5.581c2.333-3.426 7.257-5.881 8.689-6.25s5.507-3.233 5.55-4.358-5.096-3.6-6.306-3.8-11.637-.091-12.503.42-4.484 2.636-5.101 3.379-2.55 5.302-5.016 5.946-6.066.924-5.418-1.264 6.525-8.803 7.222-9.548 6.183-4.621 8.008-5.244 10.85-4.214 11.399-4.634 2.345-1.843 3.63-1.806 3.876.752 3.876.752 11.746 1.322 19.633 4.252 2.395 11.528 2.395 11.528"/><path fill="#1E2A6E" d="M423.88 450.06c-.556.088-1.14-.12-1.661-.616-1.289-1.226-1.844-3.753-.617-5.556 2.353-3.456 7.243-5.921 8.79-6.319 1.5-.387 5.385-3.253 5.42-4.196.034-.935-4.86-3.406-6.16-3.62-1.265-.21-11.584-.069-12.385.397l-.043.024c-3.657 2.157-4.744 2.994-5.012 3.317-.136.161-.351.545-.625 1.028-.943 1.668-2.524 4.462-4.482 4.975-1.94.503-4.516.777-5.393-.13-.325-.335-.405-.789-.238-1.352.65-2.195 6.415-8.713 7.262-9.62.693-.74 6.233-4.658 8.08-5.288 1.886-.644 10.827-4.208 11.349-4.609l.07-.053c.649-.5 2.367-1.823 3.672-1.787 1.29.035 3.81.727 3.918.758a.175.175 0 0 1 .12.214.17.17 0 0 1-.215.122c-.025-.006-2.584-.71-3.834-.746-1.167-.03-2.886 1.282-3.449 1.716l-.07.055c-.582.447-9.684 4.059-11.448 4.663-1.814.617-7.256 4.466-7.937 5.194-.798.856-6.56 7.381-7.182 9.48-.13.438-.08.769.153 1.01.722.745 3.058.557 5.054.034 1.815-.474 3.349-3.187 4.266-4.809.293-.517.504-.892.66-1.078.414-.502 2.134-1.642 5.105-3.394l.04-.025c.958-.555 11.609-.608 12.621-.44 1.155.189 6.5 2.674 6.452 3.979-.048 1.265-4.268 4.156-5.68 4.52-1.465.376-6.322 2.846-8.59 6.177-1.11 1.632-.59 4.001.57 5.106.384.364 1.155.88 2.007.239 1.922-1.451 10.11-5.705 11.65-5.949q.085-.013.14-.01c.932.05 10.365-.583 14.342-2.647 6.057-3.144 7.025-7.457 7.035-7.5a.17.17 0 0 1 .205-.134.174.174 0 0 1 .137.205c-.038.185-1.002 4.513-7.214 7.738-4.114 2.137-13.542 2.741-14.524 2.687a.5.5 0 0 0-.107.006c-1.338.212-9.412 4.342-11.452 5.882a1.8 1.8 0 0 1-.8.351"/></g><path fill="#FF6387" d="M18.033-6.038s-5.115-2.458-5.895-2.301-3.36 1.864-3.36 1.864-11.87.976-13.285 1.476-10.951 7.852-12.178 9.559-1.348 3.786-1.348 3.786z" transform="rotate(-9.008 2914.955 -2443.25)" style="display:block"/><g style="display:block"><path fill="#FF6387" d="M423.057 429.061s-2.729 2.292-3.42 2.975-1.894 4.188-2.52 5.198-3.437 2.48-4.943 1.816c0 0-1.462 2.358-3.48 2.866s-3.107-.831-3.065-1.217 2.008-4.082 3.474-6.276 11.866-8.583 12.823-7.932 1.131 2.57 1.131 2.57"/><path fill="#1E2A6E" d="M408.38 442.159c-1.3.206-2.11-.345-2.412-.609-.338-.294-.538-.636-.512-.87.051-.468 2.118-4.282 3.502-6.353a.174.174 0 0 1 .242-.049.174.174 0 0 1 .048.243c-1.453 2.176-3.397 5.84-3.446 6.197-.007.069.104.315.395.569.29.25 1.105.79 2.454.458 1.927-.484 3.359-2.765 3.373-2.787a.176.176 0 0 1 .22-.068c1.421.626 4.138-.802 4.724-1.748.25-.405.604-1.238.978-2.122.558-1.319 1.136-2.683 1.567-3.11.69-.68 3.318-2.889 3.43-2.983a.174.174 0 0 1 .247.021.175.175 0 0 1-.022.247c-.026.023-2.73 2.294-3.409 2.964-.383.379-.972 1.769-1.49 2.996-.38.898-.74 1.743-1.004 2.171-.614.994-3.38 2.514-5.024 1.939-.336.503-1.687 2.363-3.504 2.82a4 4 0 0 1-.357.074"/><path fill="#1E2A6E" d="M412.09 439.157a.175.175 0 0 1-.19-.233c.015-.04 1.48-3.964 3.611-6.579a.173.173 0 0 1 .246-.025.175.175 0 0 1 .025.246c-2.094 2.57-3.54 6.44-3.554 6.48a.18.18 0 0 1-.138.111"/></g><g style="display:block"><path fill="#1E286D" d="M542.046 175.778c-5.406.494-9.515 3.872-9.18 7.543.079.865.405 1.667.918 2.384-1.765 1.779-2.747 4.087-2.525 6.517.107 1.166.5 2.245 1.09 3.219-2.04 1.303-3.268 3.175-3.088 5.144.072.789.37 1.52.837 2.174-1.61 1.622-2.505 3.728-2.301 5.943.109 1.196.535 2.3 1.19 3.27-1.681 2.647-.29 6.978 3.309 9.975 3.805 3.167 8.632 3.64 10.783 1.056 1.396-1.678 1.316-4.228.05-6.678-.682-1.32-.153-2.986 1.143-3.71 6.02-3.37 5.36-7.822 4.188-10.76a4.5 4.5 0 0 1-.31-2.218l.004-.04a4.4 4.4 0 0 1 1.176-2.493c1.37-1.46 3.65-4.301 3.416-6.848a7.4 7.4 0 0 0-.562-2.226c-.618-1.454-.478-3.072.024-4.57a4.7 4.7 0 0 0 .233-1.93c-.335-3.67-4.99-6.246-10.395-5.752"/><path fill="#FF6387" d="M520.836 241.58c-15.437 5.525-32.433-2.51-37.958-17.947l-17.267-48.238 55.906-20.011 17.266 48.237c5.526 15.438-2.509 32.431-17.947 37.958"/><path fill="#FF6387" d="M528.007 188.476c.604-5.563 4.58-9.695 8.88-9.228s7.3 5.354 6.696 10.918-4.58 9.695-8.881 9.229-7.298-5.355-6.695-10.919"/><path fill="#1E2A6E" d="M484.569 207.307c.815 2.277.664 4.413-.338 4.771s-2.475-1.196-3.29-3.473-.664-4.413.338-4.771 2.474 1.196 3.29 3.473m18.799-6.73c.815 2.277.664 4.413-.338 4.772s-2.474-1.196-3.29-3.474-.664-4.413.338-4.771 2.475 1.196 3.29 3.473m-28.802-1.662a1.028 1.028 0 0 1-1.03-1.386c.72-1.94 1.93-3.29 3.591-4.015 3.157-1.38 6.767.083 6.919.146a1.03 1.03 0 0 1-.784 1.904c-.03-.013-2.982-1.189-5.32-.16-1.142.502-1.952 1.43-2.477 2.843a1.03 1.03 0 0 1-.899.668m19.166-5.186a1.026 1.026 0 0 1-1.03-1.386c.72-1.94 1.929-3.29 3.59-4.016 3.155-1.372 6.768.084 6.92.148a1.03 1.03 0 0 1-.784 1.903c-.03-.012-2.975-1.188-5.32-.16-1.143.502-1.953 1.43-2.478 2.842a1.03 1.03 0 0 1-.898.669m-.123 28.057c-1.73.112-3.296-.269-4.298-1.05-1.399-1.09-1.684-2.835-.762-4.669 1.941-3.858-.172-14.493-.64-15.917a1.04 1.04 0 0 1 .639-1.304 1.02 1.02 0 0 1 1.3.618c.302.844 2.991 12.658.54 17.529-.714 1.418-.034 1.946.188 2.12 1.314 1.024 4.961 1.002 7.683-1.354a1.025 1.025 0 0 1 1.45.106 1.03 1.03 0 0 1-.105 1.451 10.3 10.3 0 0 1-5.995 2.47m5.045 10.827c-2.335.151-3.78-.656-3.886-.717a1.029 1.029 0 0 1 1.023-1.784c.159.086 3.524 1.841 8.507-2.068 5.571-4.373 5.36-9.887 5.348-10.12a1.03 1.03 0 0 1 .962-1.08h.012a1.027 1.027 0 0 1 1.082.965c.017.275.316 6.793-6.132 11.854-2.706 2.123-5.084 2.832-6.916 2.95"/><path fill="#1E286D" d="M533.902 150.686a13.9 13.9 0 0 0-1.676-4.529c-2.771-4.769-8.332-7.396-13.783-6.554a13.7 13.7 0 0 0-4.61 1.574 6.7 6.7 0 0 1-6.462.027 13.6 13.6 0 0 0-11.143-.882 13.55 13.55 0 0 0-7.027 5.717c-1.503 2.46-4.366 3.759-7.19 3.184a13.57 13.57 0 0 0-7.305.528c-4.792 1.715-8.022 5.834-8.838 10.513-.266 1.533-1.042 2.944-2.232 3.945a15.25 15.25 0 0 0-5.189 9.077c-.233 1.353-.969 2.56-1.945 3.526a9.76 9.76 0 0 0-1.483 12.013c2.027 3.367 6.031 5.197 9.91 4.566a9.6 9.6 0 0 0 4.567-2.04c.484-.393 1.123-.508 1.74-.416a15.1 15.1 0 0 0 8.605-1.228 15.15 15.15 0 0 0 5.884-4.803 2.25 2.25 0 0 1 2.22-.878 13.5 13.5 0 0 0 6.974-.581 13.6 13.6 0 0 0 2.206-1.02c2.466-1.42 5.561-1.101 7.642.84 3.067 2.864 7.903 5.834 13.911 4.317.92-.232 1.726-.729 2.503-1.204.893-.546 2.023-.353 2.75.402 1.87 1.945 3.985 2.86 5.76 2.224.83-.297 1.502-.904 2.004-1.74 1.34-2.232 3.51-3.883 6.106-4.074a13.7 13.7 0 0 0 5.516-1.625c5.233-2.824 8.062-8.914 6.833-14.733-1.207-5.713-5.633-9.654-10.786-10.652-2.779-.538-4.96-2.709-5.462-5.494m-52.922 67.113c-3.639.236-7.15-1.943-8.438-5.543a8.33 8.33 0 0 1 .313-6.41 8.33 8.33 0 0 1 4.755-4.31 8.32 8.32 0 0 1 6.41.315 8.32 8.32 0 0 1 4.31 4.754 8.33 8.33 0 0 1-.313 6.41 8.33 8.33 0 0 1-4.755 4.31 8.3 8.3 0 0 1-2.282.474m-.99-15.426a7 7 0 0 0-1.937.402 7.02 7.02 0 0 0-4.008 3.634 7.02 7.02 0 0 0-.265 5.404c1.313 3.67 5.374 5.586 9.039 4.273a7.075 7.075 0 0 0 4.272-9.037 7.03 7.03 0 0 0-3.635-4.01 7 7 0 0 0-3.466-.666m22.18 7.839c-3.638.235-7.148-1.943-8.437-5.543-1.559-4.352.716-9.16 5.068-10.72a8.32 8.32 0 0 1 6.41.315 8.33 8.33 0 0 1 4.311 4.754c1.557 4.354-.716 9.163-5.068 10.72a8.4 8.4 0 0 1-2.283.474m-.99-15.426a7 7 0 0 0-1.936.402 7.02 7.02 0 0 0-4.009 3.634 7.02 7.02 0 0 0-.264 5.404c1.313 3.67 5.37 5.59 9.038 4.273 3.67-1.312 5.587-5.366 4.273-9.037a7.03 7.03 0 0 0-3.635-4.008 7 7 0 0 0-3.467-.668"/><path fill="#1E286D" d="m488.426 207.767-1.124-.682c.09-.153 2.298-3.715 7.14-2.858l-.23 1.294c-3.923-.695-5.712 2.126-5.786 2.246m20.63-8.299-.465-1.23 19.505-7.392c1.472-.56 2.558-1.746 2.904-3.176.438-1.802 1.66-4.35 5.003-6.253l.652 1.144c-2.935 1.67-4 3.868-4.375 5.419-.45 1.852-1.84 3.384-3.719 4.096z"/></g><g style="display:block"><path fill="#FF6387" d="m546.559 251.069-.225-.522a23.6 23.6 0 0 0-1.607-3.725l-21.142-49.017-17.83 10.476 9.72 50.276c-.01.187-.054.36-.061.548-.412 11.958 6.492 21.902 15.423 22.21s16.504-9.136 16.916-21.094a27.7 27.7 0 0 0-1.225-9.141z"/><path fill="#1E2A6E" d="M531.774 230.039s-.112 12.684-13.093 21.619c-1.651 1.129-2.997 1.847-4.106 2.22l-2.137-11.056c4.075-1.766 16.072-7.311 19.336-12.783"/></g><g style="display:block"><path fill="#9DBCFE" d="M322.146 701.093H8V8.633h314.146z"/><path fill="#404BA4" d="M322.146 709.256H8c-4.3 0-7.786-3.655-7.786-8.163V8.633C.214 4.125 3.7.47 8 .47h314.146c4.301 0 7.786 3.655 7.786 8.163v692.46c0 4.508-3.485 8.163-7.786 8.163M15.787 692.93h298.572V16.796H15.787z"/><path fill="#89EBFC" d="M33.928 41.079v29.59c0 1.018.826 1.844 1.844 1.844h258.602l1.844-1.844v-29.59a1.845 1.845 0 0 0-1.844-1.844H35.772a1.845 1.845 0 0 0-1.844 1.844"/><path fill="#8B41D1" d="M290.21 46.819a2.8 2.8 0 0 1-2.81 2.793 2.8 2.8 0 0 1-2.81-2.793 2.8 2.8 0 0 1 2.81-2.793 2.8 2.8 0 0 1 2.81 2.793m0 9.055a2.8 2.8 0 0 1-2.81 2.793 2.8 2.8 0 0 1-2.81-2.793 2.8 2.8 0 0 1 2.81-2.793c1.552 0 2.81 1.25 2.81 2.793m0 9.056a2.8 2.8 0 0 1-2.81 2.793 2.8 2.8 0 0 1-2.81-2.793 2.8 2.8 0 0 1 2.81-2.793 2.8 2.8 0 0 1 2.81 2.793m-8.95-18.111a2.8 2.8 0 0 1-2.81 2.793 2.8 2.8 0 0 1-2.81-2.793 2.8 2.8 0 0 1 2.81-2.793 2.8 2.8 0 0 1 2.81 2.793m0 9.055a2.8 2.8 0 0 1-2.81 2.793 2.8 2.8 0 0 1-2.81-2.793 2.8 2.8 0 0 1 2.81-2.793c1.552 0 2.81 1.25 2.81 2.793m0 9.056a2.8 2.8 0 0 1-2.81 2.793 2.8 2.8 0 0 1-2.81-2.793 2.8 2.8 0 0 1 2.81-2.793 2.8 2.8 0 0 1 2.81 2.793m-8.95-18.111a2.8 2.8 0 0 1-2.81 2.793 2.8 2.8 0 0 1-2.81-2.793 2.8 2.8 0 0 1 2.81-2.793 2.8 2.8 0 0 1 2.81 2.793m0 9.055a2.8 2.8 0 0 1-2.81 2.793 2.8 2.8 0 0 1-2.81-2.793 2.8 2.8 0 0 1 2.81-2.793c1.552 0 2.81 1.25 2.81 2.793m0 9.056a2.8 2.8 0 0 1-2.81 2.793 2.8 2.8 0 0 1-2.81-2.793 2.8 2.8 0 0 1 2.81-2.793 2.8 2.8 0 0 1 2.81 2.793"/><path fill="#FFF" d="M144.592 51.112h-6.506v-6.97h6.506zm7.433 0h-6.504v-6.97h6.504zm7.435 0h-6.506v-6.97h6.506zm7.435 0h-6.506v-6.97h6.506zm7.433 0h-6.504v-6.97h6.504zm7.434 0h-6.504v-6.97h6.504zm7.436 0h-6.506v-6.97h6.506zm7.434 0h-6.506v-6.97h6.506zm7.433 0h-6.504v-6.97h6.504zm7.434 0h-6.504v-6.97h6.504zm7.436 0h-6.506v-6.97h6.506zm7.434 0h-6.506v-6.97h6.506zm7.433 0h-6.504v-6.97h6.504zm7.434 0h-6.504v-6.97h6.504zm7.436 0h-6.506v-6.97h6.506zm7.433 0h-6.504v-6.97h6.504zm-111.513 8.247h-6.506v-6.97h6.506zm7.433 0h-6.504v-6.97h6.504zm7.435 0h-6.506v-6.97h6.506zm7.435 0h-6.506v-6.97h6.506zm7.433 0h-6.504v-6.97h6.504zm7.434 0h-6.504v-6.97h6.504zm7.436 0h-6.506v-6.97h6.506zm7.434 0h-6.506v-6.97h6.506zm7.433 0h-6.504v-6.97h6.504zm7.434 0h-6.504v-6.97h6.504zm7.436 0h-6.506v-6.97h6.506zm7.434 0h-6.506v-6.97h6.506zm7.433 0h-6.504v-6.97h6.504zm7.434 0h-6.504v-6.97h6.504zm7.436 0h-6.506v-6.97h6.506zm7.433 0h-6.504v-6.97h6.504zm-111.513 8.248h-6.506v-6.97h6.506zm7.433 0h-6.504v-6.97h6.504zm7.435 0h-6.506v-6.97h6.506zm7.435 0h-6.506v-6.97h6.506zm7.433 0h-6.504v-6.97h6.504zm7.434 0h-6.504v-6.97h6.504zm7.436 0h-6.506v-6.97h6.506zm7.434 0h-6.506v-6.97h6.506zm7.433 0h-6.504v-6.97h6.504zm7.434 0h-6.504v-6.97h6.504zm7.436 0h-6.506v-6.97h6.506zm7.434 0h-6.506v-6.97h6.506zm7.433 0h-6.504v-6.97h6.504zm7.434 0h-6.504v-6.97h6.504zm7.436 0h-6.506v-6.97h6.506zm7.433 0h-6.504v-6.97h6.504z"/><path fill="#8B41D1" d="M130.109 67.084H38.697V44.142h91.412z"/><path fill="#89EBFC" d="M116.563 59.51H42.059v-7.794h74.504zM33.928 81.888v29.59c0 1.018.826 1.844 1.844 1.844h258.602l1.844-1.844v-29.59a1.845 1.845 0 0 0-1.844-1.844H35.772a1.845 1.845 0 0 0-1.844 1.844"/><path fill="#8B41D1" d="M290.21 87.627a2.8 2.8 0 0 1-2.81 2.793 2.8 2.8 0 0 1-2.81-2.793 2.8 2.8 0 0 1 2.81-2.793 2.8 2.8 0 0 1 2.81 2.793m0 9.056a2.8 2.8 0 0 1-2.81 2.793 2.8 2.8 0 0 1-2.81-2.793 2.8 2.8 0 0 1 2.81-2.793c1.552 0 2.81 1.25 2.81 2.793m0 9.055a2.8 2.8 0 0 1-2.81 2.793 2.8 2.8 0 0 1-2.81-2.793 2.8 2.8 0 0 1 2.81-2.793 2.8 2.8 0 0 1 2.81 2.793m-8.95-18.111a2.8 2.8 0 0 1-2.81 2.793 2.8 2.8 0 0 1-2.81-2.793 2.8 2.8 0 0 1 2.81-2.793 2.8 2.8 0 0 1 2.81 2.793m0 9.056a2.8 2.8 0 0 1-2.81 2.793 2.8 2.8 0 0 1-2.81-2.793 2.8 2.8 0 0 1 2.81-2.793c1.552 0 2.81 1.25 2.81 2.793m0 9.055a2.8 2.8 0 0 1-2.81 2.793 2.8 2.8 0 0 1-2.81-2.793 2.8 2.8 0 0 1 2.81-2.793 2.8 2.8 0 0 1 2.81 2.793m-8.95-18.111a2.8 2.8 0 0 1-2.81 2.793 2.8 2.8 0 0 1-2.81-2.793 2.8 2.8 0 0 1 2.81-2.793 2.8 2.8 0 0 1 2.81 2.793m0 9.056a2.8 2.8 0 0 1-2.81 2.793 2.8 2.8 0 0 1-2.81-2.793 2.8 2.8 0 0 1 2.81-2.793c1.552 0 2.81 1.25 2.81 2.793m0 9.055a2.8 2.8 0 0 1-2.81 2.793 2.8 2.8 0 0 1-2.81-2.793 2.8 2.8 0 0 1 2.81-2.793 2.8 2.8 0 0 1 2.81 2.793"/><path fill="#FFF" d="M144.592 91.92h-6.506v-6.97h6.506zm7.433 0h-6.504v-6.97h6.504zm7.435 0h-6.506v-6.97h6.506zm7.435 0h-6.506v-6.97h6.506zm7.433 0h-6.504v-6.97h6.504zm7.434 0h-6.504v-6.97h6.504zm7.436 0h-6.506v-6.97h6.506zm7.434 0h-6.506v-6.97h6.506zm7.433 0h-6.504v-6.97h6.504zm7.434 0h-6.504v-6.97h6.504zm7.436 0h-6.506v-6.97h6.506zm7.434 0h-6.506v-6.97h6.506zm7.433 0h-6.504v-6.97h6.504zm7.434 0h-6.504v-6.97h6.504zm7.436 0h-6.506v-6.97h6.506zm7.433 0h-6.504v-6.97h6.504zm-111.513 8.247h-6.506v-6.97h6.506zm7.433 0h-6.504v-6.97h6.504zm7.435 0h-6.506v-6.97h6.506zm7.435 0h-6.506v-6.97h6.506zm7.433 0h-6.504v-6.97h6.504zm7.434 0h-6.504v-6.97h6.504zm7.436 0h-6.506v-6.97h6.506zm7.434 0h-6.506v-6.97h6.506zm7.433 0h-6.504v-6.97h6.504zm7.434 0h-6.504v-6.97h6.504zm7.436 0h-6.506v-6.97h6.506zm7.434 0h-6.506v-6.97h6.506zm7.433 0h-6.504v-6.97h6.504zm7.434 0h-6.504v-6.97h6.504zm7.436 0h-6.506v-6.97h6.506zm7.433 0h-6.504v-6.97h6.504zm-111.513 8.248h-6.506v-6.97h6.506zm7.433 0h-6.504v-6.97h6.504zm7.435 0h-6.506v-6.97h6.506zm7.435 0h-6.506v-6.97h6.506zm7.433 0h-6.504v-6.97h6.504zm7.434 0h-6.504v-6.97h6.504zm7.436 0h-6.506v-6.97h6.506zm7.434 0h-6.506v-6.97h6.506zm7.433 0h-6.504v-6.97h6.504zm7.434 0h-6.504v-6.97h6.504zm7.436 0h-6.506v-6.97h6.506zm7.434 0h-6.506v-6.97h6.506zm7.433 0h-6.504v-6.97h6.504zm7.434 0h-6.504v-6.97h6.504zm7.436 0h-6.506v-6.97h6.506zm7.433 0h-6.504v-6.97h6.504z"/><path fill="#8B41D1" d="M130.109 107.892H38.697V84.95h91.412z"/><path fill="#89EBFC" d="M116.563 100.318H42.059v-7.794h74.504zm-82.635 44.04v29.59c0 1.018.826 1.844 1.844 1.844h258.602l1.844-1.844v-29.59a1.845 1.845 0 0 0-1.844-1.844H35.772a1.845 1.845 0 0 0-1.844 1.844"/><path fill="#8B41D1" d="M290.21 150.098a2.8 2.8 0 0 1-2.81 2.793 2.8 2.8 0 0 1-2.81-2.793 2.8 2.8 0 0 1 2.81-2.793c1.552 0 2.81 1.25 2.81 2.793m0 9.055a2.8 2.8 0 0 1-2.81 2.793 2.8 2.8 0 0 1-2.81-2.793 2.8 2.8 0 0 1 2.81-2.793c1.552 0 2.81 1.25 2.81 2.793m0 9.056a2.8 2.8 0 0 1-2.81 2.793 2.8 2.8 0 0 1-2.81-2.793 2.8 2.8 0 0 1 2.81-2.793c1.552 0 2.81 1.25 2.81 2.793m-8.95-18.111a2.8 2.8 0 0 1-2.81 2.793 2.8 2.8 0 0 1-2.81-2.793 2.8 2.8 0 0 1 2.81-2.793c1.552 0 2.81 1.25 2.81 2.793m0 9.055a2.8 2.8 0 0 1-2.81 2.793 2.8 2.8 0 0 1-2.81-2.793 2.8 2.8 0 0 1 2.81-2.793c1.552 0 2.81 1.25 2.81 2.793m0 9.056a2.8 2.8 0 0 1-2.81 2.793 2.8 2.8 0 0 1-2.81-2.793 2.8 2.8 0 0 1 2.81-2.793c1.552 0 2.81 1.25 2.81 2.793m-8.95-18.111a2.8 2.8 0 0 1-2.81 2.793 2.8 2.8 0 0 1-2.81-2.793 2.8 2.8 0 0 1 2.81-2.793c1.552 0 2.81 1.25 2.81 2.793m0 9.055a2.8 2.8 0 0 1-2.81 2.793 2.8 2.8 0 0 1-2.81-2.793 2.8 2.8 0 0 1 2.81-2.793c1.552 0 2.81 1.25 2.81 2.793m0 9.056a2.8 2.8 0 0 1-2.81 2.793 2.8 2.8 0 0 1-2.81-2.793 2.8 2.8 0 0 1 2.81-2.793c1.552 0 2.81 1.25 2.81 2.793"/><path fill="#FFF" d="M144.592 154.391h-6.506v-6.97h6.506zm7.433 0h-6.504v-6.97h6.504zm7.435 0h-6.506v-6.97h6.506zm7.435 0h-6.506v-6.97h6.506zm7.433 0h-6.504v-6.97h6.504zm7.434 0h-6.504v-6.97h6.504zm7.436 0h-6.506v-6.97h6.506zm7.434 0h-6.506v-6.97h6.506zm7.433 0h-6.504v-6.97h6.504zm7.434 0h-6.504v-6.97h6.504zm7.436 0h-6.506v-6.97h6.506zm7.434 0h-6.506v-6.97h6.506zm7.433 0h-6.504v-6.97h6.504zm7.434 0h-6.504v-6.97h6.504zm7.436 0h-6.506v-6.97h6.506zm7.433 0h-6.504v-6.97h6.504zm-111.513 8.247h-6.506v-6.97h6.506zm7.433 0h-6.504v-6.97h6.504zm7.435 0h-6.506v-6.97h6.506zm7.435 0h-6.506v-6.97h6.506zm7.433 0h-6.504v-6.97h6.504zm7.434 0h-6.504v-6.97h6.504zm7.436 0h-6.506v-6.97h6.506zm7.434 0h-6.506v-6.97h6.506zm7.433 0h-6.504v-6.97h6.504zm7.434 0h-6.504v-6.97h6.504zm7.436 0h-6.506v-6.97h6.506zm7.434 0h-6.506v-6.97h6.506zm7.433 0h-6.504v-6.97h6.504zm7.434 0h-6.504v-6.97h6.504zm7.436 0h-6.506v-6.97h6.506zm7.433 0h-6.504v-6.97h6.504zm-111.513 8.248h-6.506v-6.97h6.506zm7.433 0h-6.504v-6.97h6.504zm7.435 0h-6.506v-6.97h6.506zm7.435 0h-6.506v-6.97h6.506zm7.433 0h-6.504v-6.97h6.504zm7.434 0h-6.504v-6.97h6.504zm7.436 0h-6.506v-6.97h6.506zm7.434 0h-6.506v-6.97h6.506zm7.433 0h-6.504v-6.97h6.504zm7.434 0h-6.504v-6.97h6.504zm7.436 0h-6.506v-6.97h6.506zm7.434 0h-6.506v-6.97h6.506zm7.433 0h-6.504v-6.97h6.504zm7.434 0h-6.504v-6.97h6.504zm7.436 0h-6.506v-6.97h6.506zm7.433 0h-6.504v-6.97h6.504z"/><path fill="#8B41D1" d="M130.109 170.363H38.697v-22.942h91.412z"/><path fill="#89EBFC" d="M116.563 162.789H42.059v-7.794h74.504zm-82.635 22.377v29.59c0 1.018.826 1.844 1.844 1.844h258.602l1.844-1.844v-29.59a1.845 1.845 0 0 0-1.844-1.844H35.772a1.845 1.845 0 0 0-1.844 1.844"/><path fill="#8B41D1" d="M290.21 190.906a2.8 2.8 0 0 1-2.81 2.793 2.8 2.8 0 0 1-2.81-2.793 2.8 2.8 0 0 1 2.81-2.793c1.552 0 2.81 1.25 2.81 2.793m0 9.056a2.8 2.8 0 0 1-2.81 2.793 2.8 2.8 0 0 1-2.81-2.793 2.8 2.8 0 0 1 2.81-2.793c1.552 0 2.81 1.25 2.81 2.793m0 9.055a2.8 2.8 0 0 1-2.81 2.793 2.8 2.8 0 0 1-2.81-2.793 2.8 2.8 0 0 1 2.81-2.793c1.552 0 2.81 1.25 2.81 2.793m-8.95-18.111a2.8 2.8 0 0 1-2.81 2.793 2.8 2.8 0 0 1-2.81-2.793 2.8 2.8 0 0 1 2.81-2.793c1.552 0 2.81 1.25 2.81 2.793m0 9.056a2.8 2.8 0 0 1-2.81 2.793 2.8 2.8 0 0 1-2.81-2.793 2.8 2.8 0 0 1 2.81-2.793c1.552 0 2.81 1.25 2.81 2.793m0 9.055a2.8 2.8 0 0 1-2.81 2.793 2.8 2.8 0 0 1-2.81-2.793 2.8 2.8 0 0 1 2.81-2.793c1.552 0 2.81 1.25 2.81 2.793m-8.95-18.111a2.8 2.8 0 0 1-2.81 2.793 2.8 2.8 0 0 1-2.81-2.793 2.8 2.8 0 0 1 2.81-2.793c1.552 0 2.81 1.25 2.81 2.793m0 9.056a2.8 2.8 0 0 1-2.81 2.793 2.8 2.8 0 0 1-2.81-2.793 2.8 2.8 0 0 1 2.81-2.793c1.552 0 2.81 1.25 2.81 2.793m0 9.055a2.8 2.8 0 0 1-2.81 2.793 2.8 2.8 0 0 1-2.81-2.793 2.8 2.8 0 0 1 2.81-2.793c1.552 0 2.81 1.25 2.81 2.793"/><path fill="#FFF" d="M144.592 195.199h-6.506v-6.97h6.506zm7.433 0h-6.504v-6.97h6.504zm7.435 0h-6.506v-6.97h6.506zm7.435 0h-6.506v-6.97h6.506zm7.433 0h-6.504v-6.97h6.504zm7.434 0h-6.504v-6.97h6.504zm7.436 0h-6.506v-6.97h6.506zm7.434 0h-6.506v-6.97h6.506zm7.433 0h-6.504v-6.97h6.504zm7.434 0h-6.504v-6.97h6.504zm7.436 0h-6.506v-6.97h6.506zm7.434 0h-6.506v-6.97h6.506zm7.433 0h-6.504v-6.97h6.504zm7.434 0h-6.504v-6.97h6.504zm7.436 0h-6.506v-6.97h6.506zm7.433 0h-6.504v-6.97h6.504zm-111.513 8.248h-6.506v-6.97h6.506zm7.433 0h-6.504v-6.97h6.504zm7.435 0h-6.506v-6.97h6.506zm7.435 0h-6.506v-6.97h6.506zm7.433 0h-6.504v-6.97h6.504zm7.434 0h-6.504v-6.97h6.504zm7.436 0h-6.506v-6.97h6.506zm7.434 0h-6.506v-6.97h6.506zm7.433 0h-6.504v-6.97h6.504zm7.434 0h-6.504v-6.97h6.504zm7.436 0h-6.506v-6.97h6.506zm7.434 0h-6.506v-6.97h6.506zm7.433 0h-6.504v-6.97h6.504zm7.434 0h-6.504v-6.97h6.504zm7.436 0h-6.506v-6.97h6.506zm7.433 0h-6.504v-6.97h6.504zm-111.513 8.247h-6.506v-6.97h6.506zm7.433 0h-6.504v-6.97h6.504zm7.435 0h-6.506v-6.97h6.506zm7.435 0h-6.506v-6.97h6.506zm7.433 0h-6.504v-6.97h6.504zm7.434 0h-6.504v-6.97h6.504zm7.436 0h-6.506v-6.97h6.506zm7.434 0h-6.506v-6.97h6.506zm7.433 0h-6.504v-6.97h6.504zm7.434 0h-6.504v-6.97h6.504zm7.436 0h-6.506v-6.97h6.506zm7.434 0h-6.506v-6.97h6.506zm7.433 0h-6.504v-6.97h6.504zm7.434 0h-6.504v-6.97h6.504zm7.436 0h-6.506v-6.97h6.506zm7.433 0h-6.504v-6.97h6.504z"/><path fill="#8B41D1" d="M130.109 211.171H38.697v-22.942h91.412z"/><path fill="#89EBFC" d="M116.563 203.597H42.059v-7.794h74.504zm-82.635 44.04v29.59c0 1.018.826 1.844 1.844 1.844h258.602l1.844-1.844v-29.59a1.845 1.845 0 0 0-1.844-1.844H35.772a1.845 1.845 0 0 0-1.844 1.844"/><path fill="#8B41D1" d="M290.21 253.377a2.8 2.8 0 0 1-2.81 2.793 2.8 2.8 0 0 1-2.81-2.793 2.8 2.8 0 0 1 2.81-2.793c1.552 0 2.81 1.25 2.81 2.793m0 9.055a2.8 2.8 0 0 1-2.81 2.793 2.8 2.8 0 0 1-2.81-2.793 2.8 2.8 0 0 1 2.81-2.793 2.8 2.8 0 0 1 2.81 2.793m0 9.056a2.8 2.8 0 0 1-2.81 2.793 2.8 2.8 0 0 1-2.81-2.793 2.8 2.8 0 0 1 2.81-2.793c1.552 0 2.81 1.25 2.81 2.793m-8.95-18.111a2.8 2.8 0 0 1-2.81 2.793 2.8 2.8 0 0 1-2.81-2.793 2.8 2.8 0 0 1 2.81-2.793c1.552 0 2.81 1.25 2.81 2.793m0 9.055a2.8 2.8 0 0 1-2.81 2.793 2.8 2.8 0 0 1-2.81-2.793 2.8 2.8 0 0 1 2.81-2.793 2.8 2.8 0 0 1 2.81 2.793m0 9.056a2.8 2.8 0 0 1-2.81 2.793 2.8 2.8 0 0 1-2.81-2.793 2.8 2.8 0 0 1 2.81-2.793c1.552 0 2.81 1.25 2.81 2.793m-8.95-18.111a2.8 2.8 0 0 1-2.81 2.793 2.8 2.8 0 0 1-2.81-2.793 2.8 2.8 0 0 1 2.81-2.793c1.552 0 2.81 1.25 2.81 2.793m0 9.055a2.8 2.8 0 0 1-2.81 2.793 2.8 2.8 0 0 1-2.81-2.793 2.8 2.8 0 0 1 2.81-2.793 2.8 2.8 0 0 1 2.81 2.793m0 9.056a2.8 2.8 0 0 1-2.81 2.793 2.8 2.8 0 0 1-2.81-2.793 2.8 2.8 0 0 1 2.81-2.793c1.552 0 2.81 1.25 2.81 2.793"/><path fill="#FFF" d="M144.592 257.67h-6.506v-6.97h6.506zm7.433 0h-6.504v-6.97h6.504zm7.435 0h-6.506v-6.97h6.506zm7.435 0h-6.506v-6.97h6.506zm7.433 0h-6.504v-6.97h6.504zm7.434 0h-6.504v-6.97h6.504zm7.436 0h-6.506v-6.97h6.506zm7.434 0h-6.506v-6.97h6.506zm7.433 0h-6.504v-6.97h6.504zm7.434 0h-6.504v-6.97h6.504zm7.436 0h-6.506v-6.97h6.506zm7.434 0h-6.506v-6.97h6.506zm7.433 0h-6.504v-6.97h6.504zm7.434 0h-6.504v-6.97h6.504zm7.436 0h-6.506v-6.97h6.506zm7.433 0h-6.504v-6.97h6.504zm-111.513 8.247h-6.506v-6.97h6.506zm7.433 0h-6.504v-6.97h6.504zm7.435 0h-6.506v-6.97h6.506zm7.435 0h-6.506v-6.97h6.506zm7.433 0h-6.504v-6.97h6.504zm7.434 0h-6.504v-6.97h6.504zm7.436 0h-6.506v-6.97h6.506zm7.434 0h-6.506v-6.97h6.506zm7.433 0h-6.504v-6.97h6.504zm7.434 0h-6.504v-6.97h6.504zm7.436 0h-6.506v-6.97h6.506zm7.434 0h-6.506v-6.97h6.506zm7.433 0h-6.504v-6.97h6.504zm7.434 0h-6.504v-6.97h6.504zm7.436 0h-6.506v-6.97h6.506zm7.433 0h-6.504v-6.97h6.504zm-111.513 8.248h-6.506v-6.97h6.506zm7.433 0h-6.504v-6.97h6.504zm7.435 0h-6.506v-6.97h6.506zm7.435 0h-6.506v-6.97h6.506zm7.433 0h-6.504v-6.97h6.504zm7.434 0h-6.504v-6.97h6.504zm7.436 0h-6.506v-6.97h6.506zm7.434 0h-6.506v-6.97h6.506zm7.433 0h-6.504v-6.97h6.504zm7.434 0h-6.504v-6.97h6.504zm7.436 0h-6.506v-6.97h6.506zm7.434 0h-6.506v-6.97h6.506zm7.433 0h-6.504v-6.97h6.504zm7.434 0h-6.504v-6.97h6.504zm7.436 0h-6.506v-6.97h6.506zm7.433 0h-6.504v-6.97h6.504z"/><path fill="#8B41D1" d="M130.109 273.642H38.697V250.7h91.412z"/><path fill="#89EBFC" d="M116.563 266.068H42.059v-7.794h74.504zm-82.635 22.377v29.59c0 1.018.826 1.844 1.844 1.844h258.602l1.844-1.844v-29.59a1.845 1.845 0 0 0-1.844-1.844H35.772a1.845 1.845 0 0 0-1.844 1.844"/><path fill="#8B41D1" d="M290.21 294.185a2.8 2.8 0 0 1-2.81 2.793 2.8 2.8 0 0 1-2.81-2.793 2.8 2.8 0 0 1 2.81-2.793c1.552 0 2.81 1.25 2.81 2.793m0 9.056a2.8 2.8 0 0 1-2.81 2.793 2.8 2.8 0 0 1-2.81-2.793 2.8 2.8 0 0 1 2.81-2.793 2.8 2.8 0 0 1 2.81 2.793m0 9.055a2.8 2.8 0 0 1-2.81 2.793 2.8 2.8 0 0 1-2.81-2.793 2.8 2.8 0 0 1 2.81-2.793c1.552 0 2.81 1.25 2.81 2.793m-8.95-18.111a2.8 2.8 0 0 1-2.81 2.793 2.8 2.8 0 0 1-2.81-2.793 2.8 2.8 0 0 1 2.81-2.793c1.552 0 2.81 1.25 2.81 2.793m0 9.056a2.8 2.8 0 0 1-2.81 2.793 2.8 2.8 0 0 1-2.81-2.793 2.8 2.8 0 0 1 2.81-2.793 2.8 2.8 0 0 1 2.81 2.793m0 9.055a2.8 2.8 0 0 1-2.81 2.793 2.8 2.8 0 0 1-2.81-2.793 2.8 2.8 0 0 1 2.81-2.793c1.552 0 2.81 1.25 2.81 2.793m-8.95-18.111a2.8 2.8 0 0 1-2.81 2.793 2.8 2.8 0 0 1-2.81-2.793 2.8 2.8 0 0 1 2.81-2.793c1.552 0 2.81 1.25 2.81 2.793m0 9.056a2.8 2.8 0 0 1-2.81 2.793 2.8 2.8 0 0 1-2.81-2.793 2.8 2.8 0 0 1 2.81-2.793 2.8 2.8 0 0 1 2.81 2.793m0 9.055a2.8 2.8 0 0 1-2.81 2.793 2.8 2.8 0 0 1-2.81-2.793 2.8 2.8 0 0 1 2.81-2.793c1.552 0 2.81 1.25 2.81 2.793"/><path fill="#FFF" d="M144.592 298.478h-6.506v-6.97h6.506zm7.433 0h-6.504v-6.97h6.504zm7.435 0h-6.506v-6.97h6.506zm7.435 0h-6.506v-6.97h6.506zm7.433 0h-6.504v-6.97h6.504zm7.434 0h-6.504v-6.97h6.504zm7.436 0h-6.506v-6.97h6.506zm7.434 0h-6.506v-6.97h6.506zm7.433 0h-6.504v-6.97h6.504zm7.434 0h-6.504v-6.97h6.504zm7.436 0h-6.506v-6.97h6.506zm7.434 0h-6.506v-6.97h6.506zm7.433 0h-6.504v-6.97h6.504zm7.434 0h-6.504v-6.97h6.504zm7.436 0h-6.506v-6.97h6.506zm7.433 0h-6.504v-6.97h6.504zm-111.513 8.247h-6.506v-6.97h6.506zm7.433 0h-6.504v-6.97h6.504zm7.435 0h-6.506v-6.97h6.506zm7.435 0h-6.506v-6.97h6.506zm7.433 0h-6.504v-6.97h6.504zm7.434 0h-6.504v-6.97h6.504zm7.436 0h-6.506v-6.97h6.506zm7.434 0h-6.506v-6.97h6.506zm7.433 0h-6.504v-6.97h6.504zm7.434 0h-6.504v-6.97h6.504zm7.436 0h-6.506v-6.97h6.506zm7.434 0h-6.506v-6.97h6.506zm7.433 0h-6.504v-6.97h6.504zm7.434 0h-6.504v-6.97h6.504zm7.436 0h-6.506v-6.97h6.506zm7.433 0h-6.504v-6.97h6.504zm-111.513 8.248h-6.506v-6.97h6.506zm7.433 0h-6.504v-6.97h6.504zm7.435 0h-6.506v-6.97h6.506zm7.435 0h-6.506v-6.97h6.506zm7.433 0h-6.504v-6.97h6.504zm7.434 0h-6.504v-6.97h6.504zm7.436 0h-6.506v-6.97h6.506zm7.434 0h-6.506v-6.97h6.506zm7.433 0h-6.504v-6.97h6.504zm7.434 0h-6.504v-6.97h6.504zm7.436 0h-6.506v-6.97h6.506zm7.434 0h-6.506v-6.97h6.506zm7.433 0h-6.504v-6.97h6.504zm7.434 0h-6.504v-6.97h6.504zm7.436 0h-6.506v-6.97h6.506zm7.433 0h-6.504v-6.97h6.504z"/><path fill="#8B41D1" d="M130.109 314.45H38.697v-22.942h91.412z"/><path fill="#89EBFC" d="M116.563 306.876H42.059v-7.794h74.504zm-82.635 44.04v29.59c0 1.018.826 1.844 1.844 1.844h258.602l1.844-1.844v-29.59a1.845 1.845 0 0 0-1.844-1.844H35.772a1.845 1.845 0 0 0-1.844 1.844"/><path fill="#8B41D1" d="M290.21 356.656a2.8 2.8 0 0 1-2.81 2.793 2.8 2.8 0 0 1-2.81-2.793 2.8 2.8 0 0 1 2.81-2.793 2.8 2.8 0 0 1 2.81 2.793m0 9.055a2.8 2.8 0 0 1-2.81 2.793 2.8 2.8 0 0 1-2.81-2.793 2.8 2.8 0 0 1 2.81-2.793c1.552 0 2.81 1.25 2.81 2.793m0 9.056a2.8 2.8 0 0 1-2.81 2.793 2.8 2.8 0 0 1-2.81-2.793 2.8 2.8 0 0 1 2.81-2.793 2.8 2.8 0 0 1 2.81 2.793m-8.95-18.111a2.8 2.8 0 0 1-2.81 2.793 2.8 2.8 0 0 1-2.81-2.793 2.8 2.8 0 0 1 2.81-2.793 2.8 2.8 0 0 1 2.81 2.793m0 9.055a2.8 2.8 0 0 1-2.81 2.793 2.8 2.8 0 0 1-2.81-2.793 2.8 2.8 0 0 1 2.81-2.793c1.552 0 2.81 1.25 2.81 2.793m0 9.056a2.8 2.8 0 0 1-2.81 2.793 2.8 2.8 0 0 1-2.81-2.793 2.8 2.8 0 0 1 2.81-2.793 2.8 2.8 0 0 1 2.81 2.793m-8.95-18.111a2.8 2.8 0 0 1-2.81 2.793 2.8 2.8 0 0 1-2.81-2.793 2.8 2.8 0 0 1 2.81-2.793 2.8 2.8 0 0 1 2.81 2.793m0 9.055a2.8 2.8 0 0 1-2.81 2.793 2.8 2.8 0 0 1-2.81-2.793 2.8 2.8 0 0 1 2.81-2.793c1.552 0 2.81 1.25 2.81 2.793m0 9.056a2.8 2.8 0 0 1-2.81 2.793 2.8 2.8 0 0 1-2.81-2.793 2.8 2.8 0 0 1 2.81-2.793 2.8 2.8 0 0 1 2.81 2.793"/><path fill="#FFF" d="M144.592 360.949h-6.506v-6.97h6.506zm7.433 0h-6.504v-6.97h6.504zm7.435 0h-6.506v-6.97h6.506zm7.435 0h-6.506v-6.97h6.506zm7.433 0h-6.504v-6.97h6.504zm7.434 0h-6.504v-6.97h6.504zm7.436 0h-6.506v-6.97h6.506zm7.434 0h-6.506v-6.97h6.506zm7.433 0h-6.504v-6.97h6.504zm7.434 0h-6.504v-6.97h6.504zm7.436 0h-6.506v-6.97h6.506zm7.434 0h-6.506v-6.97h6.506zm7.433 0h-6.504v-6.97h6.504zm7.434 0h-6.504v-6.97h6.504zm7.436 0h-6.506v-6.97h6.506zm7.433 0h-6.504v-6.97h6.504zm-111.513 8.247h-6.506v-6.97h6.506zm7.433 0h-6.504v-6.97h6.504zm7.435 0h-6.506v-6.97h6.506zm7.435 0h-6.506v-6.97h6.506zm7.433 0h-6.504v-6.97h6.504zm7.434 0h-6.504v-6.97h6.504zm7.436 0h-6.506v-6.97h6.506zm7.434 0h-6.506v-6.97h6.506zm7.433 0h-6.504v-6.97h6.504zm7.434 0h-6.504v-6.97h6.504zm7.436 0h-6.506v-6.97h6.506zm7.434 0h-6.506v-6.97h6.506zm7.433 0h-6.504v-6.97h6.504zm7.434 0h-6.504v-6.97h6.504zm7.436 0h-6.506v-6.97h6.506zm7.433 0h-6.504v-6.97h6.504zm-111.513 8.248h-6.506v-6.97h6.506zm7.433 0h-6.504v-6.97h6.504zm7.435 0h-6.506v-6.97h6.506zm7.435 0h-6.506v-6.97h6.506zm7.433 0h-6.504v-6.97h6.504zm7.434 0h-6.504v-6.97h6.504zm7.436 0h-6.506v-6.97h6.506zm7.434 0h-6.506v-6.97h6.506zm7.433 0h-6.504v-6.97h6.504zm7.434 0h-6.504v-6.97h6.504zm7.436 0h-6.506v-6.97h6.506zm7.434 0h-6.506v-6.97h6.506zm7.433 0h-6.504v-6.97h6.504zm7.434 0h-6.504v-6.97h6.504zm7.436 0h-6.506v-6.97h6.506zm7.433 0h-6.504v-6.97h6.504z"/><path fill="#8B41D1" d="M130.109 376.921H38.697v-22.942h91.412z"/><path fill="#89EBFC" d="M116.563 369.347H42.059v-7.794h74.504zm-82.635 22.377v29.59c0 1.018.826 1.844 1.844 1.844h258.602l1.844-1.844v-29.59a1.845 1.845 0 0 0-1.844-1.844H35.772a1.845 1.845 0 0 0-1.844 1.844"/><path fill="#8B41D1" d="M290.21 397.464a2.8 2.8 0 0 1-2.81 2.793 2.8 2.8 0 0 1-2.81-2.793 2.8 2.8 0 0 1 2.81-2.793 2.8 2.8 0 0 1 2.81 2.793m0 9.055a2.8 2.8 0 0 1-2.81 2.793 2.8 2.8 0 0 1-2.81-2.793 2.8 2.8 0 0 1 2.81-2.793c1.552 0 2.81 1.25 2.81 2.793m0 9.056a2.8 2.8 0 0 1-2.81 2.793 2.8 2.8 0 0 1-2.81-2.793 2.8 2.8 0 0 1 2.81-2.793 2.8 2.8 0 0 1 2.81 2.793m-8.95-18.111a2.8 2.8 0 0 1-2.81 2.793 2.8 2.8 0 0 1-2.81-2.793 2.8 2.8 0 0 1 2.81-2.793 2.8 2.8 0 0 1 2.81 2.793m0 9.055a2.8 2.8 0 0 1-2.81 2.793 2.8 2.8 0 0 1-2.81-2.793 2.8 2.8 0 0 1 2.81-2.793c1.552 0 2.81 1.25 2.81 2.793m0 9.056a2.8 2.8 0 0 1-2.81 2.793 2.8 2.8 0 0 1-2.81-2.793 2.8 2.8 0 0 1 2.81-2.793 2.8 2.8 0 0 1 2.81 2.793m-8.95-18.111a2.8 2.8 0 0 1-2.81 2.793 2.8 2.8 0 0 1-2.81-2.793 2.8 2.8 0 0 1 2.81-2.793 2.8 2.8 0 0 1 2.81 2.793m0 9.055a2.8 2.8 0 0 1-2.81 2.793 2.8 2.8 0 0 1-2.81-2.793 2.8 2.8 0 0 1 2.81-2.793c1.552 0 2.81 1.25 2.81 2.793m0 9.056a2.8 2.8 0 0 1-2.81 2.793 2.8 2.8 0 0 1-2.81-2.793 2.8 2.8 0 0 1 2.81-2.793 2.8 2.8 0 0 1 2.81 2.793"/><path fill="#FFF" d="M144.592 401.757h-6.506v-6.97h6.506zm7.433 0h-6.504v-6.97h6.504zm7.435 0h-6.506v-6.97h6.506zm7.435 0h-6.506v-6.97h6.506zm7.433 0h-6.504v-6.97h6.504zm7.434 0h-6.504v-6.97h6.504zm7.436 0h-6.506v-6.97h6.506zm7.434 0h-6.506v-6.97h6.506zm7.433 0h-6.504v-6.97h6.504zm7.434 0h-6.504v-6.97h6.504zm7.436 0h-6.506v-6.97h6.506zm7.434 0h-6.506v-6.97h6.506zm7.433 0h-6.504v-6.97h6.504zm7.434 0h-6.504v-6.97h6.504zm7.436 0h-6.506v-6.97h6.506zm7.433 0h-6.504v-6.97h6.504zm-111.513 8.247h-6.506v-6.97h6.506zm7.433 0h-6.504v-6.97h6.504zm7.435 0h-6.506v-6.97h6.506zm7.435 0h-6.506v-6.97h6.506zm7.433 0h-6.504v-6.97h6.504zm7.434 0h-6.504v-6.97h6.504zm7.436 0h-6.506v-6.97h6.506zm7.434 0h-6.506v-6.97h6.506zm7.433 0h-6.504v-6.97h6.504zm7.434 0h-6.504v-6.97h6.504zm7.436 0h-6.506v-6.97h6.506zm7.434 0h-6.506v-6.97h6.506zm7.433 0h-6.504v-6.97h6.504zm7.434 0h-6.504v-6.97h6.504zm7.436 0h-6.506v-6.97h6.506zm7.433 0h-6.504v-6.97h6.504zm-111.513 8.248h-6.506v-6.97h6.506zm7.433 0h-6.504v-6.97h6.504zm7.435 0h-6.506v-6.97h6.506zm7.435 0h-6.506v-6.97h6.506zm7.433 0h-6.504v-6.97h6.504zm7.434 0h-6.504v-6.97h6.504zm7.436 0h-6.506v-6.97h6.506zm7.434 0h-6.506v-6.97h6.506zm7.433 0h-6.504v-6.97h6.504zm7.434 0h-6.504v-6.97h6.504zm7.436 0h-6.506v-6.97h6.506zm7.434 0h-6.506v-6.97h6.506zm7.433 0h-6.504v-6.97h6.504zm7.434 0h-6.504v-6.97h6.504zm7.436 0h-6.506v-6.97h6.506zm7.433 0h-6.504v-6.97h6.504z"/><path fill="#8B41D1" d="M130.109 417.729H38.697v-22.942h91.412z"/><path fill="#89EBFC" d="M116.563 410.155H42.059v-7.794h74.504zm-82.635 44.04v29.59c0 1.018.826 1.844 1.844 1.844h258.602l1.844-1.844v-29.59a1.845 1.845 0 0 0-1.844-1.844H35.772a1.845 1.845 0 0 0-1.844 1.844"/><path fill="#8B41D1" d="M290.21 459.935a2.8 2.8 0 0 1-2.81 2.793 2.8 2.8 0 0 1-2.81-2.793 2.8 2.8 0 0 1 2.81-2.793c1.552 0 2.81 1.25 2.81 2.793m0 9.055a2.8 2.8 0 0 1-2.81 2.793 2.8 2.8 0 0 1-2.81-2.793 2.8 2.8 0 0 1 2.81-2.793c1.552 0 2.81 1.25 2.81 2.793m0 9.056a2.8 2.8 0 0 1-2.81 2.793 2.8 2.8 0 0 1-2.81-2.793 2.8 2.8 0 0 1 2.81-2.793c1.552 0 2.81 1.25 2.81 2.793m-8.95-18.111a2.8 2.8 0 0 1-2.81 2.793 2.8 2.8 0 0 1-2.81-2.793 2.8 2.8 0 0 1 2.81-2.793c1.552 0 2.81 1.25 2.81 2.793m0 9.055a2.8 2.8 0 0 1-2.81 2.793 2.8 2.8 0 0 1-2.81-2.793 2.8 2.8 0 0 1 2.81-2.793c1.552 0 2.81 1.25 2.81 2.793m0 9.056a2.8 2.8 0 0 1-2.81 2.793 2.8 2.8 0 0 1-2.81-2.793 2.8 2.8 0 0 1 2.81-2.793c1.552 0 2.81 1.25 2.81 2.793m-8.95-18.111a2.8 2.8 0 0 1-2.81 2.793 2.8 2.8 0 0 1-2.81-2.793 2.8 2.8 0 0 1 2.81-2.793c1.552 0 2.81 1.25 2.81 2.793m0 9.055a2.8 2.8 0 0 1-2.81 2.793 2.8 2.8 0 0 1-2.81-2.793 2.8 2.8 0 0 1 2.81-2.793c1.552 0 2.81 1.25 2.81 2.793m0 9.056a2.8 2.8 0 0 1-2.81 2.793 2.8 2.8 0 0 1-2.81-2.793 2.8 2.8 0 0 1 2.81-2.793c1.552 0 2.81 1.25 2.81 2.793"/><path fill="#FFF" d="M144.592 464.228h-6.506v-6.97h6.506zm7.433 0h-6.504v-6.97h6.504zm7.435 0h-6.506v-6.97h6.506zm7.435 0h-6.506v-6.97h6.506zm7.433 0h-6.504v-6.97h6.504zm7.434 0h-6.504v-6.97h6.504zm7.436 0h-6.506v-6.97h6.506zm7.434 0h-6.506v-6.97h6.506zm7.433 0h-6.504v-6.97h6.504zm7.434 0h-6.504v-6.97h6.504zm7.436 0h-6.506v-6.97h6.506zm7.434 0h-6.506v-6.97h6.506zm7.433 0h-6.504v-6.97h6.504zm7.434 0h-6.504v-6.97h6.504zm7.436 0h-6.506v-6.97h6.506zm7.433 0h-6.504v-6.97h6.504zm-111.513 8.247h-6.506v-6.97h6.506zm7.433 0h-6.504v-6.97h6.504zm7.435 0h-6.506v-6.97h6.506zm7.435 0h-6.506v-6.97h6.506zm7.433 0h-6.504v-6.97h6.504zm7.434 0h-6.504v-6.97h6.504zm7.436 0h-6.506v-6.97h6.506zm7.434 0h-6.506v-6.97h6.506zm7.433 0h-6.504v-6.97h6.504zm7.434 0h-6.504v-6.97h6.504zm7.436 0h-6.506v-6.97h6.506zm7.434 0h-6.506v-6.97h6.506zm7.433 0h-6.504v-6.97h6.504zm7.434 0h-6.504v-6.97h6.504zm7.436 0h-6.506v-6.97h6.506zm7.433 0h-6.504v-6.97h6.504zm-111.513 8.248h-6.506v-6.97h6.506zm7.433 0h-6.504v-6.97h6.504zm7.435 0h-6.506v-6.97h6.506zm7.435 0h-6.506v-6.97h6.506zm7.433 0h-6.504v-6.97h6.504zm7.434 0h-6.504v-6.97h6.504zm7.436 0h-6.506v-6.97h6.506zm7.434 0h-6.506v-6.97h6.506zm7.433 0h-6.504v-6.97h6.504zm7.434 0h-6.504v-6.97h6.504zm7.436 0h-6.506v-6.97h6.506zm7.434 0h-6.506v-6.97h6.506zm7.433 0h-6.504v-6.97h6.504zm7.434 0h-6.504v-6.97h6.504zm7.436 0h-6.506v-6.97h6.506zm7.433 0h-6.504v-6.97h6.504z"/><path fill="#8B41D1" d="M130.109 480.2H38.697v-22.942h91.412z"/><path fill="#89EBFC" d="M116.563 472.626H42.059v-7.794h74.504zm-82.635 22.377v29.59c0 1.018.826 1.844 1.844 1.844h258.602l1.844-1.844v-29.59a1.845 1.845 0 0 0-1.844-1.844H35.772a1.845 1.845 0 0 0-1.844 1.844"/><path fill="#8B41D1" d="M290.21 500.743a2.8 2.8 0 0 1-2.81 2.793 2.8 2.8 0 0 1-2.81-2.793 2.8 2.8 0 0 1 2.81-2.793c1.552 0 2.81 1.25 2.81 2.793m0 9.055a2.8 2.8 0 0 1-2.81 2.793 2.8 2.8 0 0 1-2.81-2.793 2.8 2.8 0 0 1 2.81-2.793c1.552 0 2.81 1.25 2.81 2.793m0 9.056a2.8 2.8 0 0 1-2.81 2.793 2.8 2.8 0 0 1-2.81-2.793 2.8 2.8 0 0 1 2.81-2.793c1.552 0 2.81 1.25 2.81 2.793m-8.95-18.111a2.8 2.8 0 0 1-2.81 2.793 2.8 2.8 0 0 1-2.81-2.793 2.8 2.8 0 0 1 2.81-2.793c1.552 0 2.81 1.25 2.81 2.793m0 9.055a2.8 2.8 0 0 1-2.81 2.793 2.8 2.8 0 0 1-2.81-2.793 2.8 2.8 0 0 1 2.81-2.793c1.552 0 2.81 1.25 2.81 2.793m0 9.056a2.8 2.8 0 0 1-2.81 2.793 2.8 2.8 0 0 1-2.81-2.793 2.8 2.8 0 0 1 2.81-2.793c1.552 0 2.81 1.25 2.81 2.793m-8.95-18.111a2.8 2.8 0 0 1-2.81 2.793 2.8 2.8 0 0 1-2.81-2.793 2.8 2.8 0 0 1 2.81-2.793c1.552 0 2.81 1.25 2.81 2.793m0 9.055a2.8 2.8 0 0 1-2.81 2.793 2.8 2.8 0 0 1-2.81-2.793 2.8 2.8 0 0 1 2.81-2.793c1.552 0 2.81 1.25 2.81 2.793m0 9.056a2.8 2.8 0 0 1-2.81 2.793 2.8 2.8 0 0 1-2.81-2.793 2.8 2.8 0 0 1 2.81-2.793c1.552 0 2.81 1.25 2.81 2.793"/><path fill="#FFF" d="M144.592 505.036h-6.506v-6.97h6.506zm7.433 0h-6.504v-6.97h6.504zm7.435 0h-6.506v-6.97h6.506zm7.435 0h-6.506v-6.97h6.506zm7.433 0h-6.504v-6.97h6.504zm7.434 0h-6.504v-6.97h6.504zm7.436 0h-6.506v-6.97h6.506zm7.434 0h-6.506v-6.97h6.506zm7.433 0h-6.504v-6.97h6.504zm7.434 0h-6.504v-6.97h6.504zm7.436 0h-6.506v-6.97h6.506zm7.434 0h-6.506v-6.97h6.506zm7.433 0h-6.504v-6.97h6.504zm7.434 0h-6.504v-6.97h6.504zm7.436 0h-6.506v-6.97h6.506zm7.433 0h-6.504v-6.97h6.504zm-111.513 8.247h-6.506v-6.97h6.506zm7.433 0h-6.504v-6.97h6.504zm7.435 0h-6.506v-6.97h6.506zm7.435 0h-6.506v-6.97h6.506zm7.433 0h-6.504v-6.97h6.504zm7.434 0h-6.504v-6.97h6.504zm7.436 0h-6.506v-6.97h6.506zm7.434 0h-6.506v-6.97h6.506zm7.433 0h-6.504v-6.97h6.504zm7.434 0h-6.504v-6.97h6.504zm7.436 0h-6.506v-6.97h6.506zm7.434 0h-6.506v-6.97h6.506zm7.433 0h-6.504v-6.97h6.504zm7.434 0h-6.504v-6.97h6.504zm7.436 0h-6.506v-6.97h6.506zm7.433 0h-6.504v-6.97h6.504zm-111.513 8.248h-6.506v-6.97h6.506zm7.433 0h-6.504v-6.97h6.504zm7.435 0h-6.506v-6.97h6.506zm7.435 0h-6.506v-6.97h6.506zm7.433 0h-6.504v-6.97h6.504zm7.434 0h-6.504v-6.97h6.504zm7.436 0h-6.506v-6.97h6.506zm7.434 0h-6.506v-6.97h6.506zm7.433 0h-6.504v-6.97h6.504zm7.434 0h-6.504v-6.97h6.504zm7.436 0h-6.506v-6.97h6.506zm7.434 0h-6.506v-6.97h6.506zm7.433 0h-6.504v-6.97h6.504zm7.434 0h-6.504v-6.97h6.504zm7.436 0h-6.506v-6.97h6.506zm7.433 0h-6.504v-6.97h6.504z"/><path fill="#8B41D1" d="M130.109 521.008H38.697v-22.942h91.412z"/><path fill="#89EBFC" d="M116.563 513.434H42.059v-7.794h74.504z"/><path fill="#404BA4" d="M26.742 565.633v102.392a8.447 8.447 0 0 0 8.446 8.446H295.18a8.447 8.447 0 0 0 8.446-8.446V565.633a8.447 8.447 0 0 0-8.446-8.446H35.188a8.447 8.447 0 0 0-8.446 8.446"/><path fill="#89EBFC" d="M33.928 578.61v29.59c0 1.018.826 1.844 1.844 1.844h258.602l1.844-1.844v-29.59a1.845 1.845 0 0 0-1.844-1.844H35.772a1.845 1.845 0 0 0-1.844 1.844"/><path fill="#8B41D1" d="M290.21 584.35a2.8 2.8 0 0 1-2.81 2.793 2.8 2.8 0 0 1-2.81-2.793 2.8 2.8 0 0 1 2.81-2.793c1.552 0 2.81 1.25 2.81 2.793m0 9.055a2.8 2.8 0 0 1-2.81 2.793 2.8 2.8 0 0 1-2.81-2.793 2.8 2.8 0 0 1 2.81-2.793c1.552 0 2.81 1.25 2.81 2.793m0 9.056a2.8 2.8 0 0 1-2.81 2.793 2.8 2.8 0 0 1-2.81-2.793 2.8 2.8 0 0 1 2.81-2.793 2.8 2.8 0 0 1 2.81 2.793m-8.95-18.111a2.8 2.8 0 0 1-2.81 2.793 2.8 2.8 0 0 1-2.81-2.793 2.8 2.8 0 0 1 2.81-2.793c1.552 0 2.81 1.25 2.81 2.793m0 9.055a2.8 2.8 0 0 1-2.81 2.793 2.8 2.8 0 0 1-2.81-2.793 2.8 2.8 0 0 1 2.81-2.793c1.552 0 2.81 1.25 2.81 2.793m0 9.056a2.8 2.8 0 0 1-2.81 2.793 2.8 2.8 0 0 1-2.81-2.793 2.8 2.8 0 0 1 2.81-2.793 2.8 2.8 0 0 1 2.81 2.793m-8.95-18.111a2.8 2.8 0 0 1-2.81 2.793 2.8 2.8 0 0 1-2.81-2.793 2.8 2.8 0 0 1 2.81-2.793c1.552 0 2.81 1.25 2.81 2.793m0 9.055a2.8 2.8 0 0 1-2.81 2.793 2.8 2.8 0 0 1-2.81-2.793 2.8 2.8 0 0 1 2.81-2.793c1.552 0 2.81 1.25 2.81 2.793m0 9.056a2.8 2.8 0 0 1-2.81 2.793 2.8 2.8 0 0 1-2.81-2.793 2.8 2.8 0 0 1 2.81-2.793 2.8 2.8 0 0 1 2.81 2.793"/><path fill="#FFF" d="M144.592 588.643h-6.506v-6.97h6.506zm7.433 0h-6.504v-6.97h6.504zm7.435 0h-6.506v-6.97h6.506zm7.435 0h-6.506v-6.97h6.506zm7.433 0h-6.504v-6.97h6.504zm7.434 0h-6.504v-6.97h6.504zm7.436 0h-6.506v-6.97h6.506zm7.434 0h-6.506v-6.97h6.506zm7.433 0h-6.504v-6.97h6.504zm7.434 0h-6.504v-6.97h6.504zm7.436 0h-6.506v-6.97h6.506zm7.434 0h-6.506v-6.97h6.506zm7.433 0h-6.504v-6.97h6.504zm7.434 0h-6.504v-6.97h6.504zm7.436 0h-6.506v-6.97h6.506zm7.433 0h-6.504v-6.97h6.504zm-111.513 8.248h-6.506v-6.97h6.506zm7.433 0h-6.504v-6.97h6.504zm7.435 0h-6.506v-6.97h6.506zm7.435 0h-6.506v-6.97h6.506zm7.433 0h-6.504v-6.97h6.504zm7.434 0h-6.504v-6.97h6.504zm7.436 0h-6.506v-6.97h6.506zm7.434 0h-6.506v-6.97h6.506zm7.433 0h-6.504v-6.97h6.504zm7.434 0h-6.504v-6.97h6.504zm7.436 0h-6.506v-6.97h6.506zm7.434 0h-6.506v-6.97h6.506zm7.433 0h-6.504v-6.97h6.504zm7.434 0h-6.504v-6.97h6.504zm7.436 0h-6.506v-6.97h6.506zm7.433 0h-6.504v-6.97h6.504zm-111.513 8.247h-6.506v-6.97h6.506zm7.433 0h-6.504v-6.97h6.504zm7.435 0h-6.506v-6.97h6.506zm7.435 0h-6.506v-6.97h6.506zm7.433 0h-6.504v-6.97h6.504zm7.434 0h-6.504v-6.97h6.504zm7.436 0h-6.506v-6.97h6.506zm7.434 0h-6.506v-6.97h6.506zm7.433 0h-6.504v-6.97h6.504zm7.434 0h-6.504v-6.97h6.504zm7.436 0h-6.506v-6.97h6.506zm7.434 0h-6.506v-6.97h6.506zm7.433 0h-6.504v-6.97h6.504zm7.434 0h-6.504v-6.97h6.504zm7.436 0h-6.506v-6.97h6.506zm7.433 0h-6.504v-6.97h6.504z"/><path fill="#8B41D1" d="M130.109 604.615H38.697v-22.942h91.412z"/><path fill="#89EBFC" d="M116.563 597.041H42.059v-7.794h74.504z"/></g></g></g></svg>